<svg xmlns="http://www.w3.org/2000/svg" width="46" height="60" version="1.1" viewBox="0 0 291.44 501.24">
 <g transform="translate(-96.889 8.01)" stroke="#fff" stroke-width="16.02" fill="#a08844">
  <path d="m242.61 0c-100.48 0-181.96 81.473-181.96 181.96s151.63 303.26 181.96 303.26c30.326 0 181.96-202.78 181.96-303.26s-81.473-181.96-181.96-181.96z" stroke="#fff" stroke-width="16.02" fill="#a08844"/>
 </g>
 <ellipse cx="145.56" cy="190.43" rx="122.57" ry="121.94" fill="#847138" stroke-width="1.8699"/>
 <path d="m140.62 92.382v7.8882c-20.646 1.7359-38.685 12.754-49.933 28.857l-6.8574-3.9586-5.7363 9.9321 6.8405 3.9468c-4.1287 8.7582-6.4384 18.533-6.4384 28.84s2.3097 20.082 6.4384 28.84l-6.8405 3.9468 5.7363 9.9383 6.8574-3.9586c6.8474 9.8054 16.211 17.723 27.152 22.81l-9.2471 25.403h-50.012v11.472h173.96v-11.472h-48.421l-9.247-25.403c10.941-5.0864 20.311-13.004 27.158-22.81l6.8575 3.9586 5.7306-9.9383-6.8347-3.9468c4.1287-8.758 6.4387-18.533 6.4387-28.84 0-10.306-2.31-20.082-6.4387-28.84l6.8347-3.9468-5.7306-9.9321-6.8575 3.9586c-11.246-16.103-29.287-27.121-49.933-28.857v-7.8882zm0 19.406v30.165c1.8482-0.40844 3.767-0.63465 5.7363-0.63465 1.969 0 3.8826 0.22627 5.7307 0.63465v-30.165c16.412 1.6649 30.765 10.399 39.961 23.098l-26.105 15.074c2.583 2.8197 4.5667 6.1974 5.7481 9.9265l26.11-15.079c3.1748 7.0488 4.9434 14.861 4.9434 23.08 0 8.2192-1.7682 16.038-4.9434 23.087l-26.11-15.079c-1.1814 3.7292-3.1651 7.1063-5.7481 9.9265l26.105 15.074c-5.4472 7.5201-12.701 13.652-21.122 17.746l-10.317-28.347c-3.1942 2.0405-6.8518 3.4144-10.776 3.9303l10.317 28.348c-4.4176 1.1159-9.04 1.7099-13.8 1.7099-4.7594 0-9.3765-0.594-13.794-1.7099l10.317-28.348c-3.9247-0.51593-7.5816-1.8898-10.776-3.9303l-10.318 28.347c-8.4209-4.0936-15.674-10.226-21.122-17.746l26.111-15.074c-2.583-2.8202-4.5664-6.1974-5.7478-9.9265l-26.116 15.079c-3.1748-7.0488-4.9435-14.867-4.9435-23.087 0-8.2192 1.7687-16.031 4.9435-23.08l26.116 15.079c1.1814-3.7296 3.1648-7.1068 5.7478-9.9265l-26.111-15.074c9.1979-12.699 23.55-21.432 39.961-23.098zm5.7363 41.003c-8.3268 0-15.102 6.7706-15.102 15.096 0 8.327 6.776 15.103 15.102 15.103 8.3263 0 15.096-6.776 15.096-15.103 0-8.3258-6.7697-15.096-15.096-15.096zm-17.741 80.602c3.8759 1.0512 7.8887 1.7662 12.005 2.1125v7.8939h11.472v-7.8939c4.116-0.34623 8.1287-1.0612 12.005-2.1125l7.8144 21.474h-51.111z" stroke-width=".38232" fill="#f7f4ec"/>
</svg>