<svg xmlns="http://www.w3.org/2000/svg" width="46" height="60" version="1.1" viewBox="0 0 291.44 501.24">
 <g transform="translate(-96.89 8.0099)" stroke="#fff" stroke-width="16.02" fill="#008080">
  <path d="m242.61 0c-100.48 0-181.96 81.473-181.96 181.96s151.63 303.26 181.96 303.26c30.326 0 181.96-202.78 181.96-303.26s-81.473-181.96-181.96-181.96z" stroke="#80ffff" stroke-width="16.02" fill="#008080"/>
 </g>
 <ellipse cx="145.72" cy="190.43" rx="122.57" ry="121.94" fill="#005959" stroke-width="1.8699"/>
 <path d="m201.35 135.87h-48.609l6.7362-21.824h26.702c2.7916 0 5.0572-2.4443 5.0572-5.4559 0-3.0117-2.2656-5.4559-5.0572-5.4559h-30.343c-2.1746 0-4.1064 1.5058-4.8043 3.7319l-8.9614 29.004h-51.979c-2.7916 0-5.0572 2.4443-5.0572 5.4559v16.368c0 34.263 24.527 62.406 55.629 65.198v43.92h-20.229c-2.7916 0-5.0572 2.4443-5.0572 5.4559 0 3.0117 2.2656 5.4559 5.0572 5.4559h50.572c2.7916 0 5.0572-2.4443 5.0572-5.4559 0-3.0117-2.2656-5.4559-5.0572-5.4559h-20.229v-43.92c31.102-2.7934 55.629-30.935 55.629-65.198v-16.368c0-3.0117-2.2656-5.4559-5.0572-5.4559zm-5.0572 21.824h-101.14v-10.912h101.14z" stroke-width=".3283" fill="#80ffff"/>
 <path d="m89.396 106.57c-16.76 0-30.343 14.655-30.343 32.736 0 14.535 8.8299 26.701 20.977 30.979-0.34389-3.0226-0.74846-6.0452-0.74846-9.1551v-16.368c0-9.0241 6.807-16.368 15.172-16.368h23.425c-4.1772-12.691-15.293-21.824-28.482-21.824z" stroke-width=".3283" fill="#80ffff"/>
</svg>