<svg xmlns="http://www.w3.org/2000/svg" width="46" height="60" version="1.1" viewBox="0 0 291.44 501.24">
 <g transform="translate(-96.888 8.0118)" stroke="#fff" stroke-width="16.02" fill="#a08844">
  <path d="m242.61 0c-100.48 0-181.96 81.473-181.96 181.96s151.63 303.26 181.96 303.26c30.326 0 181.96-202.78 181.96-303.26s-81.473-181.96-181.96-181.96z" stroke="#fff" stroke-width="16.02" fill="#a08844"/>
 </g>
 <ellipse cx="145.56" cy="190.43" rx="122.57" ry="121.94" fill="#847138" stroke-width="1.8699"/>
 <g transform="matrix(1.1448 0 0 1.1448 60.554 105.43)" fill="#f7f4ec">
  <polygon points="24.148 111.38 25.656 55.841 37.73 55.841 39.542 111.38"></polygon>
  <polygon points="0 136.13 0 129.79 6.338 129.79 6.338 120.74 15.394 120.74 15.394 114.4 133.12 114.4 133.12 120.74 142.17 120.74 142.17 129.79 148.51 129.79 148.51 136.13"></polygon>
  <polygon points="139.15 39.541 74.253 12.375 9.357 39.541 9.357 43.466 139.15 43.466"></polygon>
  <rect x="21.732" y="46.484" width="105.04" height="6.035"></rect>
  <polygon points="108.96 111.38 110.48 55.841 122.55 55.841 124.36 111.38"></polygon>
  <polygon points="80.592 111.38 82.102 55.841 94.477 55.841 96.289 111.38"></polygon>
  <polygon points="52.218 111.38 54.029 55.841 66.103 55.841 67.914 111.38"></polygon>
 </g>
</svg>