<svg xmlns="http://www.w3.org/2000/svg" width="46" height="60" version="1.1" viewBox="0 0 291.44 501.24">
 <g transform="translate(-96.888 8.0118)" stroke="#fff" stroke-width="16.02" fill="#a08844">
  <path d="m242.61 0c-100.48 0-181.96 81.473-181.96 181.96s151.63 303.26 181.96 303.26c30.326 0 181.96-202.78 181.96-303.26s-81.473-181.96-181.96-181.96z" stroke="#fff" stroke-width="16.02" fill="#a08844"/>
 </g>
 <ellipse cx="146.02" cy="190.43" rx="122.57" ry="121.94" fill="#847138" stroke-width="1.8699"/>
 <path d="m235.83 154.56c-0.3624-0.96101-1.1105-1.7262-2.0627-2.1107l-16.003-6.4565c-0.99391-5.1696-4.9207-9.3103-9.9737-10.616l-0.86321-9.944c-0.12613-1.455-1.1026-2.697-2.487-3.1636-1.384-0.46612-2.9129-0.07-3.8942 1.0136l-4.107 4.5305-2.5388-8.8843c-0.43737-1.5314-1.8122-2.6064-3.4045-2.6615-1.6016-0.0581-3.0384 0.9217-3.5809 2.4196l-18.967 52.327s-70.257 3.2797-70.286 3.2814c-14.407 0.86576-28.055-6.8429-34.762-19.64-0.94242-1.7967-3.1625-2.4902-4.9588-1.5486-1.7971 0.94216-2.4902 3.1624-1.5486 4.9589 5.9959 11.441 16.616 19.49 28.792 22.42-1.2642 1.473-3.98 5.1243-5.5683 10.865-1.7269 6.241-2.349 16.191 4.0005 28.824l-10.299 13.989c-0.60183 0.81646-0.83865 1.8459-0.6545 2.8441l4.533 24.579c0.32112 1.7419 1.8405 3.0069 3.6125 3.0069h4.6173c1.0892 0 2.1223-0.48357 2.8206-1.3197 0.69781-0.83654 0.98855-1.9399 0.79351-3.0116l-2.8705-15.766 30.368-22.797c0.0547-0.0419-0.0526 0.0452 0 0 2.9038-2.4391 5.0116-5.1252 6.5192-7.8866 15.828 2.7785 37.488 6.5388 51.372 8.7744l6.1166 38.904c0.28113 1.7866 1.8204 3.103 3.6289 3.103h3.7992c2.0291 0 3.6735-1.6446 3.6735-3.6735v-39.491c3.4486-2.3552 4.6814-6.2941 5.4987-10.152 0.0268-0.12111 8.1723-37.721 8.1723-37.721 1.5355 0.25596 3.0862 0.39004 4.6482 0.39004 10.758 0 20.609-6.2983 25.709-16.437 0.46105-0.91669 0.51745-1.9855 0.15493-2.9465z" stroke-width=".40816" fill="#f7f4ec"/>
</svg>