<svg xmlns="http://www.w3.org/2000/svg" width="46" height="60" version="1.1" viewBox="0 0 291.44 501.24">
 <g transform="translate(-96.888 8.0118)" stroke="#fff" stroke-width="16.02" fill="#a08844">
  <path d="m242.61 0c-100.48 0-181.96 81.473-181.96 181.96s151.63 303.26 181.96 303.26c30.326 0 181.96-202.78 181.96-303.26s-81.473-181.96-181.96-181.96z" stroke="#fff" stroke-width="16.02" fill="#a08844"/>
 </g>
 <ellipse cx="145.56" cy="190.43" rx="122.57" ry="121.94" fill="#847138" stroke-width="1.8699"/>
 <g transform="matrix(.65487 0 0 .65487 55.527 100.4)" fill="#f7f4ec">
  <path d="m265.96 183.75c-9.717 0-18.94-4.233-25.305-11.614-1.709-1.982-4.198-3.123-6.816-3.123s-5.106 1.14-6.816 3.123c-6.363 7.38-15.586 11.613-25.304 11.613s-18.94-4.233-25.305-11.614c-1.709-1.982-4.198-3.123-6.816-3.123s-5.106 1.14-6.816 3.123c-6.363 7.38-15.586 11.613-25.304 11.613s-18.94-4.233-25.304-11.613c-1.71-1.983-4.198-3.123-6.816-3.123s-5.106 1.14-6.816 3.123c-6.364 7.381-15.587 11.614-25.305 11.614s-18.94-4.233-25.304-11.613c-1.71-1.983-4.198-3.123-6.816-3.123s-5.106 1.14-6.816 3.123c-6.364 7.382-15.587 11.614-25.304 11.614-4.971 0-9 4.029-9 9s4.029 9 9 9c10.469 0 20.558-3.195 29.029-9 1.055-0.723 2.09-1.48 3.092-2.283 1.002 0.803 2.037 1.56 3.092 2.283 8.47 5.805 18.56 9 29.028 9s20.558-3.195 29.029-9c1.055-0.723 2.09-1.48 3.092-2.283 1.002 0.803 2.037 1.56 3.092 2.283 8.47 5.805 18.56 9 29.028 9s20.558-3.195 29.028-9c1.055-0.723 2.089-1.48 3.092-2.283 1.002 0.803 2.037 1.56 3.092 2.283 8.47 5.805 18.56 9 29.029 9s20.558-3.195 29.028-9c1.055-0.723 2.089-1.48 3.092-2.283 1.002 0.803 2.037 1.56 3.092 2.283 8.47 5.805 18.56 9 29.029 9 4.971 0 9-4.029 9-9s-4.03-9-9.001-9z" fill="#f7f4ec"/>
  <path d="m265.96 135.85c-9.717 0-18.94-4.233-25.305-11.614-1.709-1.982-4.198-3.123-6.816-3.123s-5.106 1.14-6.816 3.123c-6.363 7.38-15.586 11.613-25.304 11.613s-18.94-4.233-25.305-11.614c-1.709-1.982-4.198-3.123-6.816-3.123s-5.106 1.14-6.816 3.123c-6.363 7.38-15.586 11.613-25.304 11.613s-18.94-4.233-25.304-11.613c-1.71-1.983-4.198-3.123-6.816-3.123s-5.106 1.14-6.816 3.123c-6.364 7.381-15.587 11.614-25.305 11.614s-18.94-4.233-25.304-11.613c-1.71-1.983-4.198-3.123-6.816-3.123s-5.106 1.14-6.816 3.123c-6.364 7.381-15.587 11.614-25.304 11.614-4.971 0-9 4.029-9 9s4.029 9 9 9c10.469 0 20.558-3.195 29.029-9 1.055-0.723 2.089-1.48 3.092-2.283 1.002 0.803 2.037 1.56 3.092 2.283 8.47 5.805 18.56 9 29.028 9s20.558-3.195 29.029-9c1.055-0.723 2.089-1.48 3.092-2.283 1.002 0.803 2.037 1.56 3.092 2.283 8.47 5.805 18.56 9 29.028 9s20.558-3.195 29.028-9c1.055-0.723 2.089-1.48 3.092-2.283 1.002 0.803 2.037 1.56 3.092 2.283 8.471 5.805 18.56 9 29.029 9s20.558-3.195 29.028-9c1.055-0.723 2.089-1.48 3.092-2.283 1.002 0.803 2.037 1.56 3.092 2.283 8.471 5.805 18.56 9 29.029 9 4.971 0 9-4.029 9-9 0-4.97-4.03-9-9.001-9z" fill="#f7f4ec"/>
  <path d="m9 105.95c10.469 0 20.558-3.195 29.029-9 1.055-0.723 2.089-1.48 3.092-2.283 1.002 0.803 2.037 1.56 3.092 2.283 8.47 5.805 18.56 9 29.028 9s20.558-3.195 29.029-9c1.055-0.723 2.089-1.48 3.092-2.283 1.002 0.803 2.037 1.56 3.092 2.283 8.47 5.805 18.56 9 29.028 9s20.558-3.195 29.028-9c1.055-0.723 2.089-1.48 3.092-2.283 1.002 0.803 2.037 1.56 3.092 2.283 8.471 5.805 18.56 9 29.029 9s20.558-3.195 29.028-9c1.055-0.723 2.089-1.48 3.092-2.283 1.002 0.803 2.037 1.56 3.092 2.283 8.471 5.805 18.56 9 29.029 9 4.971 0 9-4.029 9-9s-4.029-9-9-9c-9.717 0-18.94-4.233-25.305-11.614-1.709-1.982-4.198-3.123-6.816-3.123s-5.106 1.14-6.816 3.123c-6.363 7.38-15.586 11.613-25.304 11.613s-18.94-4.233-25.305-11.614c-1.709-1.982-4.198-3.123-6.816-3.123s-5.106 1.14-6.816 3.123c-6.363 7.38-15.586 11.613-25.304 11.613s-18.94-4.233-25.304-11.613c-1.71-1.983-4.198-3.123-6.816-3.123s-5.106 1.14-6.816 3.123c-6.364 7.381-15.587 11.614-25.305 11.614s-18.941-4.232-25.304-11.612c-1.71-1.983-4.198-3.123-6.816-3.123s-5.106 1.14-6.816 3.123c-6.365 7.381-15.588 11.613-25.305 11.613-4.971 0-9 4.029-9 9s4.029 9 9 9z" fill="#f7f4ec"/>
 </g>
</svg>