<svg xmlns="http://www.w3.org/2000/svg" width="46" height="60" version="1.1" viewBox="0 0 291.44 501.24">
 <g transform="translate(-96.888 8.0118)" stroke="#fff" stroke-width="16.02" fill="#a08844">
  <path d="m242.61 0c-100.48 0-181.96 81.473-181.96 181.96s151.63 303.26 181.96 303.26c30.326 0 181.96-202.78 181.96-303.26s-81.473-181.96-181.96-181.96z" stroke="#fff" stroke-width="16.02" fill="#a08844"/>
 </g>
 <ellipse cx="145.56" cy="190.43" rx="122.57" ry="121.94" fill="#847138" stroke-width="1.8699"/>
 <g transform="matrix(.94737 0 0 .94737 -27.945 17.163)" stroke-width=".3711" fill="#f7f4ec">
  <path d="m88.14 132.03v94.233l65.017-43.129z" fill="#f7f4ec"/>
  <path d="m191.16 186.23 79.986-62.716h-175.81l79.794 62.716c4.7186 3.7014 11.311 3.7014 16.03 0z" fill="#f7f4ec"/>
  <path d="m213.14 183.14 65.001 43.162v-94.129z" fill="#f7f4ec"/>
  <path d="m198.03 195c-4.3808 3.4354-9.6341 5.1551-14.884 5.1551-5.2517 0-10.502-1.7179-14.886-5.1551l-5.8797-4.6229-74.235 49.245v2.6542h190v-2.6005l-74.227-49.289z" fill="#f7f4ec"/>
 </g>
</svg>