<svg width="36" height="40" version="1.1" viewBox="0 0 12.226 13.394" xmlns="http://www.w3.org/2000/svg">
 <path d="m11.731 5.4963-1.251-0.70422 0.73128-1.2354c0.10786-0.17263 0.1108-0.35304 0.0091-0.54134-0.11005-0.18095-0.26726-0.2697-0.47176-0.26621l-1.4429 0.017019 0.02274-1.4381c0.00471-0.21163-0.085523-0.36721-0.2713-0.46623-0.17859-0.1113-0.35842-0.11188-0.53942-0.00179l-1.2339 0.73869-0.70677-1.258c-0.1005-0.18357-0.25514-0.27298-0.46426-0.26825-0.21063-8.316e-5 -0.36597 0.090404-0.46628 0.2712l-0.70225 1.2583-1.2373-0.73862c-0.17866-0.11123-0.35843-0.11181-0.53938-0.00174-0.18351 0.10049-0.27291 0.25528-0.26816 0.4645l0.017019 1.4429-1.4381-0.02274c-0.21175-0.00488-0.36715 0.085542-0.46623 0.27125-0.11126 0.17861-0.11188 0.3584-0.00174 0.53938l0.73869 1.2341-1.2581 0.70669c-0.17871 0.099203-0.27054 0.25465-0.27534 0.4664 0.005937 0.21397 0.098796 0.36871 0.27837 0.46432l1.2511 0.70419-0.73138 1.2354c-0.10772 0.17254-0.11068 0.353-0.00894 0.54121 0.11004 0.18102 0.26729 0.26972 0.47166 0.2663l1.4428-0.017116-0.022692 1.4381c-0.00491 0.21174 0.085495 0.36708 0.27119 0.46625 0.17865 0.1112 0.3584 0.1117 0.53936 0.0017l1.2341-0.73856c0.32871 0.60036 0.59139 2.7839 1.1731 2.9956 0.64843-0.18686 0.83951-2.4073 1.1685-2.9918l1.2354 0.73148c0.12396 0.07958 0.26014 0.09954 0.40851 0.05979 0.033665-9e-3 0.077784-0.02591 0.13285-0.05089 0.18089-0.11011 0.26953-0.26729 0.26609-0.47163l-0.01709-1.4427 1.438 0.022689c0.21178 0.00469 0.36724-0.085678 0.46625-0.2713 0.11126-0.17875 0.11186-0.3585 0.0018-0.5394l-0.73863-1.2341 1.258-0.70649c0.17891-0.099229 0.27056-0.25476 0.27544-0.46645-6e-3 -0.21394-0.0988-0.36873-0.27859-0.46426z" fill="#005959" stroke="#80ffff" stroke-linecap="round" stroke-linejoin="round" stroke-width=".43214"/>
 <g transform="matrix(.024766 0 0 .024766 6.2894 -1.0994)" fill="#80ffff">
  <g transform="matrix(.45589 0 0 .45589 -103.41 170.66)" fill="#80ffff">
   <path d="m0 0h126.17v111h-126.17z" fill="#80ffff"/>
   <path d="m156.17 111h266.17v-111h-266.17zm182.78-69.984h29.641v29.637h-29.641zm-26.945 0v29.637h-29.637v-29.637z" fill="#80ffff"/>
   <path d="m0 141v371h422.34v-371zm211.17 294.99c-65.258 0-118.35-53.094-118.35-118.35s53.09-118.35 118.35-118.35c65.258 0 118.35 53.094 118.35 118.35s-53.09 118.35-118.35 118.35z" fill="#80ffff"/>
  </g>
  <path d="m-41.631 300.9c8.9787-3.0149 23.008-3.8448 38.855 9.312 8.717 7.2372 17.603 9.5841 26.411 6.9737 4.1351-1.2269 7.4064-3.2962 9.3813-4.7777-1.5706-20.782-18.984-37.212-40.161-37.212-17.601 0-32.6 11.349-38.067 27.115 1.1237-0.50934 2.3168-0.98659 3.5795-1.4104z" stroke-width=".45589" fill="#80ffff"/>
  <path d="m28.22 330.08c-3.2999 1.0436-7.2299 1.8182-11.625 1.8182-8.1312 0-17.851-2.6535-28.106-11.167-8.6655-7.1944-17.178-9.5557-25.3-7.0216-6.1171 1.9091-10.037 5.9676-10.352 6.3022 2.2634 20.079 19.347 35.736 40.02 35.736 17.39 0 32.24-11.079 37.866-26.548-0.80493 0.31163-1.6384 0.60906-2.5021 0.88148z" stroke-width=".45589" fill="#80ffff"/>
 </g>
</svg>
