<svg xmlns="http://www.w3.org/2000/svg" width="46" height="60" version="1.1" viewBox="0 0 291.44 501.24">
 <g transform="translate(-96.888 8.0118)" stroke="#fff" stroke-width="16.02" fill="#a08844">
  <path d="m242.61 0c-100.48 0-181.96 81.473-181.96 181.96s151.63 303.26 181.96 303.26c30.326 0 181.96-202.78 181.96-303.26s-81.473-181.96-181.96-181.96z" stroke="#fff" stroke-width="16.02" fill="#a08844"/>
 </g>
 <ellipse cx="146.02" cy="190.43" rx="122.57" ry="121.94" fill="#847138" stroke-width="1.8699"/>
 <g transform="matrix(.32986 0 0 .30837 65.988 115.62)" fill="#f7f4ec">
  <path d="m460.96 176.4c13.33-10.011 24.256-4.532 24.256 12.139v272.94c0 16.671-10.926 22.15-24.256 12.14l-72.792-54.609c-13.324-10.007-24.255-31.839-24.255-48.51v-90.976c0-16.676 10.931-38.501 24.255-48.512l72.792-54.607zm-400.3-139.49c-33.493 0-60.651 27.156-60.651 60.651 0 33.493 27.158 60.653 60.651 60.653 33.498 0 60.653-27.16 60.653-60.653 0-33.495-27.155-60.651-60.653-60.651zm181.96-30.327c-41.875 0-75.812 33.939-75.812 75.814s33.937 75.817 75.812 75.817c41.873 0 75.816-33.941 75.816-75.817s-33.943-75.814-75.816-75.814zm-121.3 242.61h212.28v181.96c0 16.764-13.566 30.326-30.331 30.326h-272.93c-16.765 1e-3 -30.327-13.562-30.327-30.326v-212.28c0-16.764 13.564-30.327 30.327-30.327h272.93c16.765 0 30.331 13.567 30.331 30.327h-212.28v30.327zm0 121.3c0-16.76-13.565-30.322-30.327-30.322s-30.327 13.562-30.327 30.322c0 16.764 13.565 30.322 30.327 30.322s30.327-13.558 30.327-30.322z" fill="#f7f4ec"/>
 </g>
</svg>