<svg width="36" height="40" version="1.1" viewBox="0 0 12.226 13.394" xmlns="http://www.w3.org/2000/svg">
 <path d="m11.731 5.4963-1.251-0.70422 0.73128-1.2354c0.10786-0.17263 0.1108-0.35304 0.0091-0.54134-0.11005-0.18095-0.26726-0.2697-0.47176-0.26621l-1.4429 0.017019 0.02274-1.4381c0.00471-0.21163-0.085523-0.36721-0.2713-0.46623-0.17859-0.1113-0.35842-0.11188-0.53942-0.00179l-1.2339 0.73869-0.70677-1.258c-0.1005-0.18357-0.25514-0.27298-0.46426-0.26825-0.21063-8.316e-5 -0.36597 0.090404-0.46628 0.2712l-0.70225 1.2583-1.2373-0.73862c-0.17866-0.11123-0.35843-0.11181-0.53938-0.00174-0.18351 0.10049-0.27291 0.25528-0.26816 0.4645l0.017019 1.4429-1.4381-0.02274c-0.21175-0.00488-0.36715 0.085542-0.46623 0.27125-0.11126 0.17861-0.11188 0.3584-0.00174 0.53938l0.73869 1.2341-1.2581 0.70669c-0.17871 0.099203-0.27054 0.25465-0.27534 0.4664 0.005937 0.21397 0.098796 0.36871 0.27837 0.46432l1.2511 0.70419-0.73138 1.2354c-0.10772 0.17254-0.11068 0.353-0.00894 0.54121 0.11004 0.18102 0.26729 0.26972 0.47166 0.2663l1.4428-0.017116-0.022692 1.4381c-0.00491 0.21174 0.085495 0.36708 0.27119 0.46625 0.17865 0.1112 0.3584 0.1117 0.53936 0.0017l1.2341-0.73856c0.32871 0.60036 0.59139 2.7839 1.1731 2.9956 0.64843-0.18686 0.83951-2.4073 1.1685-2.9918l1.2354 0.73148c0.12396 0.07958 0.26014 0.09954 0.40851 0.05979 0.033665-9e-3 0.077784-0.02591 0.13285-0.05089 0.18089-0.11011 0.26953-0.26729 0.26609-0.47163l-0.01709-1.4427 1.438 0.022689c0.21178 0.00469 0.36724-0.085678 0.46625-0.2713 0.11126-0.17875 0.11186-0.3585 0.0018-0.5394l-0.73863-1.2341 1.258-0.70649c0.17891-0.099229 0.27056-0.25476 0.27544-0.46645-6e-3 -0.21394-0.0988-0.36873-0.27859-0.46426z" fill="#847138" stroke="#fff" stroke-linecap="round" stroke-linejoin="round" stroke-width=".43214"/>
 <g transform="matrix(.030578 0 0 .030578 1.8986 1.8038)" fill="#f7f4ec">
  <path d="m13.56 151.36h16.979v27.293c0 8.728 7.083 15.812 15.814 15.812 2.737 0 5.276-0.761 7.517-1.988v7.658c0 8.737 7.084 15.816 15.819 15.816 8.728 0 15.814-7.084 15.814-15.816v-48.775h100.62v48.775c0 8.737 7.08 15.816 15.816 15.816 8.732 0 15.812-7.084 15.812-15.816v-7.668c2.244 1.232 4.788 1.988 7.522 1.988 8.737 0 15.817-7.075 15.817-15.812v-27.288h20.969c7.491 0 13.554-6.062 13.554-13.553 0-7.489-6.062-13.554-13.554-13.554h-20.969v-27.283c0-8.732-7.08-15.814-15.817-15.814-2.734 0-5.278 0.76-7.522 1.988v-7.666c0-8.734-7.08-15.812-15.812-15.812-8.736 0-15.816 7.082-15.816 15.812v48.775h-100.62v-48.769c0-8.735-7.082-15.812-15.814-15.812-8.729 0-15.819 7.083-15.819 15.812v7.661c-2.245-1.228-4.779-1.983-7.517-1.983-8.732 0-15.814 7.078-15.814 15.814v27.284h-16.979c-7.491 0-13.56 6.069-13.56 13.554 0 7.484 6.069 13.551 13.56 13.551z" fill="#f7f4ec"/>
 </g>
</svg>
