<svg width="36" height="40" version="1.1" viewBox="0 0 12.226 13.394" xmlns="http://www.w3.org/2000/svg">
 <path d="m11.731 5.4963-1.251-0.70422 0.73128-1.2354c0.10786-0.17263 0.1108-0.35304 0.0091-0.54134-0.11005-0.18095-0.26726-0.2697-0.47176-0.26621l-1.4429 0.017019 0.02274-1.4381c0.00471-0.21163-0.085523-0.36721-0.2713-0.46623-0.17859-0.1113-0.35842-0.11188-0.53942-0.00179l-1.2339 0.73869-0.70677-1.258c-0.1005-0.18357-0.25514-0.27298-0.46426-0.26825-0.21063-8.316e-5 -0.36597 0.090404-0.46628 0.2712l-0.70225 1.2583-1.2373-0.73862c-0.17866-0.11123-0.35843-0.11181-0.53938-0.00174-0.18351 0.10049-0.27291 0.25528-0.26816 0.4645l0.017019 1.4429-1.4381-0.02274c-0.21175-0.00488-0.36715 0.085542-0.46623 0.27125-0.11126 0.17861-0.11188 0.3584-0.00174 0.53938l0.73869 1.2341-1.2581 0.70669c-0.17871 0.099203-0.27054 0.25465-0.27534 0.4664 0.005937 0.21397 0.098796 0.36871 0.27837 0.46432l1.2511 0.70419-0.73138 1.2354c-0.10772 0.17254-0.11068 0.353-0.00894 0.54121 0.11004 0.18102 0.26729 0.26972 0.47166 0.2663l1.4428-0.017116-0.022692 1.4381c-0.00491 0.21174 0.085495 0.36708 0.27119 0.46625 0.17865 0.1112 0.3584 0.1117 0.53936 0.0017l1.2341-0.73856c0.32871 0.60036 0.59139 2.7839 1.1731 2.9956 0.64843-0.18686 0.83951-2.4073 1.1685-2.9918l1.2354 0.73148c0.12396 0.07958 0.26014 0.09954 0.40851 0.05979 0.033665-9e-3 0.077784-0.02591 0.13285-0.05089 0.18089-0.11011 0.26953-0.26729 0.26609-0.47163l-0.01709-1.4427 1.438 0.022689c0.21178 0.00469 0.36724-0.085678 0.46625-0.2713 0.11126-0.17875 0.11186-0.3585 0.0018-0.5394l-0.73863-1.2341 1.258-0.70649c0.17891-0.099229 0.27056-0.25476 0.27544-0.46645-6e-3 -0.21394-0.0988-0.36873-0.27859-0.46426z" fill="#847138" stroke="#fff" stroke-linecap="round" stroke-linejoin="round" stroke-width=".43214"/>
 <path d="m4.8111 3.1257c-0.8772 0-1.5906 0.71336-1.5906 1.5906v0.1446h0.5784v-0.1446c0-0.56875 0.44341-1.0122 1.0122-1.0122 0.46415 0 0.84264 0.29622 0.96703 0.71398-0.040338-0.021003-0.083476-0.037881-0.12652-0.054226-0.030725-0.012019-0.058491-0.026632-0.090373-0.036153-0.012008-0.00349-0.023978-0.00596-0.036148-0.0091-0.089266-0.023487-0.18387-0.03615-0.28016-0.03615-0.38559 0-0.73585 0.19188-0.95796 0.48803l0.46992 0.35251c0.12493-0.16656 0.29521-0.26207 0.48803-0.26207 0.3442 0 0.5784 0.2342 0.5784 0.5784v0.28921h0.5784v-0.2892c0-0.3442 0.23419-0.5784 0.5784-0.5784 0.1446 0 0.27897 0.056497 0.38862 0.15364 0.036537 0.032379 0.068186 0.066813 0.099412 0.10845l0.46993-0.35247c-0.2221-0.29614-0.57237-0.48803-0.95796-0.48803-0.073455 0-0.14736 0.0041-0.21689 0.018077-0.022021 0.00418-0.04169 0.012748-0.063268 0.018076-0.01898 0.00499-0.035626 0.012172-0.054226 0.018076-0.055969 0.016807-0.1106 0.038613-0.16268 0.063268-0.011925 0.00583-0.024443 0.011991-0.036149 0.018077 0.12434-0.41774 0.50284-0.71398 0.96703-0.71398 0.56875 0 1.0122 0.44341 1.0122 1.0122v0.14459h0.57841v-0.1446c0-0.8772-0.71336-1.5906-1.5906-1.5906-0.53872 0-1.006 0.27511-1.2923 0.68684-0.28741-0.41404-0.7692-0.68684-1.3104-0.68684zm-0.43379 2.892v0.5784h0.36149c0.18451 0.41752 0.72049 0.86758 1.3737 0.86758 0.65319 0 1.1892-0.45007 1.3737-0.86758h0.3615v-0.5784zm1.1568 1.7352v0.28919h-2.3136l0.1446 0.46093c0.086759 0.23137 0.29099 0.40666 0.55126 0.40666h4.3924c0.26028 0 0.46451-0.17532 0.55126-0.40666l0.1446-0.46093h-2.3136v-0.28919h-1.1568z" fill="#f7f4ec" stroke-width=".2892"/>
</svg>
