<svg xmlns="http://www.w3.org/2000/svg" width="46" height="60" version="1.1" viewBox="0 0 291.44 501.24">
 <g transform="translate(-96.888 8.0118)" stroke="#fff" stroke-width="16.02" fill="#a08844">
  <path d="m242.61 0c-100.48 0-181.96 81.473-181.96 181.96s151.63 303.26 181.96 303.26c30.326 0 181.96-202.78 181.96-303.26s-81.473-181.96-181.96-181.96z" stroke="#fff" stroke-width="16.02" fill="#a08844"/>
 </g>
 <ellipse cx="146.02" cy="190.43" rx="122.57" ry="121.94" fill="#847138" stroke-width="1.8699"/>
 <g transform="matrix(.31264 0 0 .31264 65.978 110.39)" fill="#f7f4ec">
  <path d="m15 512h272c8.2852 0 15-6.7148 15-15v-16c0-16.57-13.43-30-30-30v-17.934c0-23.746-19.32-43.066-43.066-43.066h-155.87c-23.746 0-43.066 19.32-43.066 43.066v17.934c-16.57 0-30 13.43-30 30v16c0 8.2812 6.7188 15 15 15z" fill="#f7f4ec"/>
  <path d="m187.73 330.34c9.9688 13.23 28.781 15.875 42.012 5.9023 13.234-9.9688 15.875-28.781 5.9062-42.016l-90.273-119.79c-9.9727-13.234-28.781-15.875-42.012-5.9062-13.234 9.9727-15.879 28.781-5.9062 42.016z" fill="#f7f4ec"/>
  <path d="m403.36 167.85c9.9727 13.23 28.781 15.875 42.016 5.9023 13.23-9.9688 15.875-28.777 5.9023-42.012l-90.273-119.79c-9.9688-13.234-28.781-15.879-42.012-5.9062-13.23 9.9727-15.875 28.781-5.9023 42.016z" fill="#f7f4ec"/>
  <path d="m337.56 255c22.172-16.707 38.816-37.453 49.227-59.297l-105.04-139.39c-23.867 3.9883-48.395 14.266-70.57 30.977-22.172 16.707-38.816 37.453-49.227 59.293l105.04 139.4c23.867-3.9883 48.395-14.27 70.57-30.98z" fill="#f7f4ec"/>
  <path d="m378.07 258.91c-6.9844 7.1172-14.34 13.941-22.449 20.055-8.1133 6.1094-16.703 11.301-25.465 16.055l19.559 25.957 47.918-36.105z" fill="#f7f4ec"/>
  <path d="m415.68 308.82-47.918 36.105 90.273 119.8c9.9727 13.234 28.781 15.875 42.012 5.9062 13.234-9.9727 15.875-28.781 5.9062-42.016z" fill="#f7f4ec"/>
 </g>
</svg>