<svg xmlns="http://www.w3.org/2000/svg" width="46" height="60" version="1.1" viewBox="0 0 291.44 501.24">
 <g transform="translate(-96.888 8.0118)" stroke="#fff" stroke-width="16.02" fill="#008080">
  <path d="m242.61 0c-100.48 0-181.96 81.473-181.96 181.96s151.63 303.26 181.96 303.26c30.326 0 181.96-202.78 181.96-303.26s-81.473-181.96-181.96-181.96z" stroke="#80ffff" stroke-width="16.02" fill="#008080"/>
 </g>
 <ellipse cx="146.02" cy="190.43" rx="122.57" ry="121.94" fill="#005959" stroke-width="1.8699"/>
 <path d="m101.36 99.827c-10.771 0-19.253 8.4822-19.253 19.253v132.96h112.35v-132.96c0-10.771-8.4828-19.253-19.253-19.253zm5.7761 18.121h62.293c3.6242 0 6.9088 3.2845 6.9088 6.9089v36.921c0 3.6241-3.2845 6.9088-6.9088 6.9088h-62.293c-3.6242 0-6.9088-3.2845-6.9088-6.9088v-36.921c0-3.6242 3.2845-6.9089 6.9088-6.9089zm97.174 1.0194-5.2098 5.2098 20.726 20.612v29.673c0 4.1134 1.708 8.3902 4.6434 11.326l17.102 16.988v27.521c0 8.1294-6.3678 14.497-14.497 14.497-8.1294 0-14.497-6.3677-14.497-14.497v-18.121c0-9.6332-5.9763-17.571-14.497-20.5v7.9281c4.3454 2.4789 7.2486 7.1132 7.2486 12.571v18.121c0 12.192 9.5533 21.745 21.745 21.745 12.192 0 21.745-9.5532 21.745-21.745v-60.139c0-4.1134-1.708-8.3902-4.6436-11.326zm-125.83 140.32c-2.0006 0-3.6242 1.6202-3.6242 3.6243v14.497c0 2.0041 1.6236 3.6241 3.6242 3.6241h119.6c2.0043 0 3.6242-1.62 3.6242-3.6241v-14.497c0-2.0042-1.62-3.6243-3.6242-3.6243z" stroke-width="3.6242" fill="#80ffff"/>
</svg>