<svg xmlns="http://www.w3.org/2000/svg" width="46" height="60" version="1.1" viewBox="0 0 291.44 501.24">
 <g transform="translate(-96.888 8.0118)" stroke="#fff" stroke-width="16.02" fill="#008080">
  <path d="m242.61 0c-100.48 0-181.96 81.473-181.96 181.96s151.63 303.26 181.96 303.26c30.326 0 181.96-202.78 181.96-303.26s-81.473-181.96-181.96-181.96z" stroke="#80ffff" stroke-width="16.02" fill="#008080"/>
 </g>
 <ellipse cx="145.72" cy="190.42" rx="122.57" ry="121.94" fill="#005959" stroke-width="1.8699"/>
 <path d="m204.53 175.02c-1.4836 0-2.9428 0.0988-4.3798 0.26332l-9.0317-29.66c0.8818-0.98631 1.4179-2.2661 1.4179-3.6672 0-3.1138-2.6317-5.6398-5.878-5.6398h-24.246c-3.2456 0-5.878 2.5259-5.878 5.6398 0 3.1138 2.6326 5.6388 5.878 5.6388h15.356l-6.2431 9.5341c-0.27619-0.0364-0.55869-0.054-0.84184-0.0484l-52.492 0.73067c1.3002-1.0346 2.1297-2.5969 2.1297-4.3438 0-3.1136-2.632-5.6389-5.8782-5.6389h-14.16c-3.2463 0-5.8783 2.5253-5.8783 5.6389 0 3.1138 2.632 5.639 5.8783 5.639h1.0569c0.14144 0.50523 0.35439 0.99975 0.65236 1.4685l2.3606 3.727-6.5158 12.331c-3.4468-1.048-7.1147-1.6168-10.919-1.6168-19.977 6.2e-4 -36.23 15.592-36.23 34.758 0 19.165 16.253 34.757 36.23 34.757 17.252 0 31.716-11.632 35.344-27.148l19.386 1.0762c0.11397 7e-3 0.22746 0.0107 0.3402 0.0107 2.013 0 3.8972-0.99127 4.9763-2.6395l36.373-55.543 5.5272 18.15c-12.155 5.6159-20.564 17.552-20.564 31.337 0 19.165 16.252 34.757 36.23 34.757s36.231-15.592 36.231-34.757c0-19.166-16.254-34.758-36.231-34.758zm-92.99 0.6306 19.591 30.932-8.1826-0.454c-1.0906-9.9868-6.6104-18.724-14.633-24.377zm-49.094 34.127c0-12.946 10.979-23.48 24.474-23.48 1.8893 0 3.7278 0.21316 5.4953 0.60416l-10.738 20.326c-0.89646 1.6958-0.84121 3.7112 0.14746 5.3606 0.98862 1.6488 2.7766 2.708 4.7559 2.8179l23.72 1.3168c-3.0948 9.5664-12.405 16.533-23.38 16.533-13.494 0-24.474-10.533-24.474-23.479zm33.774-5.1328 6.6741-12.632c4.1185 3.4138 7.0404 8.1163 8.0775 13.451zm45.841-2.5228-20.945-33.07 42.993-0.59787zm62.472 31.135c-13.495 0-24.474-10.533-24.474-23.479 0-8.647 4.9005-16.211 12.173-20.285l6.6591 21.866c0.91104 2.9901 4.1766 4.7064 7.2896 3.8324 3.1165-0.8735 4.9045-4.0053 3.994-6.9937l-6.6598-21.874c0.33789-0.0149 0.67687-0.0271 1.0184-0.0271 13.495 0 24.474 10.532 24.474 23.479 0 12.946-10.978 23.479-24.474 23.479z" stroke-width=".57573" fill="#80ffff"/>
</svg>