<svg width="36" height="40" version="1.1" viewBox="0 0 12.226 13.394" xmlns="http://www.w3.org/2000/svg">
 <path d="m11.731 5.4963-1.251-0.70422 0.73128-1.2354c0.10786-0.17263 0.1108-0.35304 0.0091-0.54134-0.11005-0.18095-0.26726-0.2697-0.47176-0.26621l-1.4429 0.017019 0.02274-1.4381c0.00471-0.21163-0.085523-0.36721-0.2713-0.46623-0.17859-0.1113-0.35842-0.11188-0.53942-0.00179l-1.2339 0.73869-0.70677-1.258c-0.1005-0.18357-0.25514-0.27298-0.46426-0.26825-0.21063-8.316e-5 -0.36597 0.090404-0.46628 0.2712l-0.70225 1.2583-1.2373-0.73862c-0.17866-0.11123-0.35843-0.11181-0.53938-0.00174-0.18351 0.10049-0.27291 0.25528-0.26816 0.4645l0.017019 1.4429-1.4381-0.02274c-0.21175-0.00488-0.36715 0.085542-0.46623 0.27125-0.11126 0.17861-0.11188 0.3584-0.00174 0.53938l0.73869 1.2341-1.2581 0.70669c-0.17871 0.099203-0.27054 0.25465-0.27534 0.4664 0.005937 0.21397 0.098796 0.36871 0.27837 0.46432l1.2511 0.70419-0.73138 1.2354c-0.10772 0.17254-0.11068 0.353-0.00894 0.54121 0.11004 0.18102 0.26729 0.26972 0.47166 0.2663l1.4428-0.017116-0.022692 1.4381c-0.00491 0.21174 0.085495 0.36708 0.27119 0.46625 0.17865 0.1112 0.3584 0.1117 0.53936 0.0017l1.2341-0.73856c0.32871 0.60036 0.59139 2.7839 1.1731 2.9956 0.64843-0.18686 0.83951-2.4073 1.1685-2.9918l1.2354 0.73148c0.12396 0.07958 0.26014 0.09954 0.40851 0.05979 0.033665-9e-3 0.077784-0.02591 0.13285-0.05089 0.18089-0.11011 0.26953-0.26729 0.26609-0.47163l-0.01709-1.4427 1.438 0.022689c0.21178 0.00469 0.36724-0.085678 0.46625-0.2713 0.11126-0.17875 0.11186-0.3585 0.0018-0.5394l-0.73863-1.2341 1.258-0.70649c0.17891-0.099229 0.27056-0.25476 0.27544-0.46645-6e-3 -0.21394-0.0988-0.36873-0.27859-0.46426z" fill="#005959" stroke="#80ffff" stroke-linecap="round" stroke-linejoin="round" stroke-width=".43214"/>
 <g transform="matrix(.062402 0 0 .062402 1.984 2.195)" fill="#80ffff">
  <circle cx="84.811" cy="10.319" r="10.319"></circle>
  <path d="m56.688 48.293-4.218-4.497 1.038-0.974c0.457-0.429 0.519-1.119 0.177-1.622 1.468-0.27 2.729-1.35 3.146-2.888 0.811-2.98 3.411-5.905 7.135-8.021 0.808-0.457 1.642-0.863 2.488-1.219l-5.537 17.33c-0.336 1.058-0.398 2.097-0.261 3.092l-3.892 10.385-12.122 0.603c-2.612 0.13-4.623 2.352-4.493 4.962 0.125 2.532 2.217 4.5 4.725 4.5 0.078 0 0.158-2e-3 0.238-6e-3l15.229-0.757c1.886-0.095 3.537-1.299 4.2-3.067l3.402-9.081c0.407 0.112 0.819 0.199 1.239 0.264l6.211 8.961-5.317 19.71c-0.679 2.524 0.813 5.124 3.339 5.804 0.414 0.112 0.828 0.164 1.235 0.164 2.088 0 3.999-1.391 4.569-3.502l5.888-21.833c0.364-1.347 0.114-2.782-0.679-3.93l-6.193-8.937c0.291-0.475 0.535-0.992 0.721-1.569l5.129-16.058c1.516 0.977 3.258 1.752 5.189 2.279 1.818 0.498 3.68 0.739 5.496 0.739 4.1 0 7.977-1.229 10.68-3.521 1.686-1.433 1.896-3.96 0.463-5.646s-3.959-1.896-5.646-0.463c-1.883 1.599-5.535 2.075-8.881 1.162-2.711-0.74-4.701-2.25-5.32-4.036-0.057-0.162-0.123-0.314-0.199-0.465-0.693-2.189-2.342-4.064-4.152-5.244-0.416-0.368-0.916-0.654-1.479-0.826-0.249-0.11-0.521-0.214-0.804-0.297-1.061-0.314-2.312-0.443-2.312-0.443l-0.031-5e-3c-0.515-0.036-1.048-0.03-1.584 0.013-5.012-0.2-10.609 1.195-15.494 3.972-5.65 3.21-9.523 7.787-10.909 12.888-0.024 0.087-0.04 0.175-0.059 0.263-0.413-0.122-0.88-0.035-1.219 0.281l-1.038 0.976-4.217-4.5-11.124 10.425 14.121 15.061zm-8.148-10.77c0.084-0.079 0.216-0.074 0.293 0.01l0.15 0.162c0.175 1.59 1.293 2.988 2.931 3.434 0.12 0.031 0.239 0.052 0.356 0.072l0.075 0.08 0.454 0.482c0.08 0.083 0.074 0.215-0.01 0.293l-1.039 0.974-4.249-4.534z" fill="#80ffff"/>
  <polygon points="15.657 75.714 15.657 82.473 52.075 82.473 52.075 102.95 89.165 102.95 89.165 122.52 95.924 122.38 95.924 96.193 58.833 96.193 58.833 75.714"></polygon>
 </g>
</svg>
