<svg width="36" height="40" version="1.1" viewBox="0 0 12.226 13.394" xmlns="http://www.w3.org/2000/svg">
 <path d="m11.731 5.4963-1.251-0.70422 0.73128-1.2354c0.10786-0.17263 0.1108-0.35304 0.0091-0.54134-0.11005-0.18095-0.26726-0.2697-0.47176-0.26621l-1.4429 0.017019 0.02274-1.4381c0.00471-0.21163-0.085523-0.36721-0.2713-0.46623-0.17859-0.1113-0.35842-0.11188-0.53942-0.00179l-1.2339 0.73869-0.70677-1.258c-0.1005-0.18357-0.25514-0.27298-0.46426-0.26825-0.21063-8.316e-5 -0.36597 0.090404-0.46628 0.2712l-0.70225 1.2583-1.2373-0.73862c-0.17866-0.11123-0.35843-0.11181-0.53938-0.00174-0.18351 0.10049-0.27291 0.25528-0.26816 0.4645l0.017019 1.4429-1.4381-0.02274c-0.21175-0.00488-0.36715 0.085542-0.46623 0.27125-0.11126 0.17861-0.11188 0.3584-0.00174 0.53938l0.73869 1.2341-1.2581 0.70669c-0.17871 0.099203-0.27054 0.25465-0.27534 0.4664 0.005937 0.21397 0.098796 0.36871 0.27837 0.46432l1.2511 0.70419-0.73138 1.2354c-0.10772 0.17254-0.11068 0.353-0.00894 0.54121 0.11004 0.18102 0.26729 0.26972 0.47166 0.2663l1.4428-0.017116-0.022692 1.4381c-0.00491 0.21174 0.085495 0.36708 0.27119 0.46625 0.17865 0.1112 0.3584 0.1117 0.53936 0.0017l1.2341-0.73856c0.32871 0.60036 0.59139 2.7839 1.1731 2.9956 0.64843-0.18686 0.83951-2.4073 1.1685-2.9918l1.2354 0.73148c0.12396 0.07958 0.26014 0.09954 0.40851 0.05979 0.033665-9e-3 0.077784-0.02591 0.13285-0.05089 0.18089-0.11011 0.26953-0.26729 0.26609-0.47163l-0.01709-1.4427 1.438 0.022689c0.21178 0.00469 0.36724-0.085678 0.46625-0.2713 0.11126-0.17875 0.11186-0.3585 0.0018-0.5394l-0.73863-1.2341 1.258-0.70649c0.17891-0.099229 0.27056-0.25476 0.27544-0.46645-6e-3 -0.21394-0.0988-0.36873-0.27859-0.46426z" fill="#005959" fill-opacity=".94118" stroke="#80ffff" stroke-linecap="round" stroke-linejoin="round" stroke-width=".43214"/>
 <path d="m9.6822 4.9122h-0.54731c-0.041695 0-0.081744 0.016097-0.11184 0.044932l-0.11683 0.11193c-0.19694-0.45568-0.47946-0.9063-0.86107-1.3728-0.20629-0.25207-0.51133-0.39663-0.83701-0.39663h-2.1913c-0.32571 0-0.63077 0.14457-0.83694 0.39664-0.39365 0.48119-0.67056 0.92095-0.86283 1.3712l-0.1151-0.11032c-0.030105-0.028826-0.070166-0.044934-0.11186-0.044934h-0.54728c-0.089281 0-0.16165 0.072368-0.16165 0.16165v0.37419c0 0.085328 0.066332 0.15593 0.15148 0.16132l0.56254 0.035438c-0.084997 0.24837-0.15137 0.61848-0.15137 1.1404 0 0.4529 0.090464 0.75056 0.24789 0.94327v0.8719c0 0.074775 0.060601 0.13536 0.13538 0.13536h0.62269c0.074804 0 0.13543-0.060586 0.13543-0.13536v-0.54144h4.0546v0.54144c0 0.074774 0.060621 0.13536 0.13539 0.13536h0.62268c0.074767 0 0.1354-0.060586 0.1354-0.13536v-0.8719c0.15739-0.19271 0.24791-0.49037 0.24791-0.94327 0-0.52196-0.066373-0.89207-0.15137-1.1404l0.56254-0.035436c0.085156-0.00545 0.15147-0.075989 0.15147-0.16132v-0.37419c0-0.089278-0.07239-0.16165-0.16162-0.16165zm-5.0402-0.83801c0.092396-0.11293 0.22907-0.17772 0.37495-0.17772h2.1913c0.14589 0 0.28261 0.064786 0.37499 0.17772 0.26697 0.32635 0.4778 0.63867 0.64075 0.94978l-4.2264 8.042e-4c0.15938-0.30419 0.37141-0.61677 0.6445-0.95057zm-0.46057 3.3226c-0.30993 0-0.56116-0.10123-0.56116-0.3468 0-0.24556 0.091156-0.44467 0.40107-0.44467 0.30992 0 0.72122 0.19912 0.72122 0.44467s-0.25124 0.3468-0.56112 0.3468zm2.5193-0.05117h-1.1764c-0.17736 0-0.32163-0.14428-0.32163-0.32162 0-0.049736 0.040339-0.090073 0.090112-0.090073h1.6395c0.049748 0 0.090055 0.040339 0.090055 0.090073 0 0.17736-0.14428 0.32162-0.32161 0.32162zm1.3429 0.051164c-0.30992 0-0.56116-0.10123-0.56116-0.3468 0-0.24556 0.41135-0.44467 0.72122-0.44467 0.30992 0 0.40108 0.19912 0.40108 0.44467 0 0.24556-0.25121 0.3468-0.56114 0.3468z" fill="#80ffff" stroke-width=".017283"/>
</svg>
