<svg xmlns="http://www.w3.org/2000/svg" width="46" height="60" version="1.1" viewBox="0 0 291.44 501.24">
 <g transform="translate(-96.888 8.0118)" stroke="#fff" stroke-width="16.02" fill="#008080">
  <path d="m242.61 0c-100.48 0-181.96 81.473-181.96 181.96s151.63 303.26 181.96 303.26c30.326 0 181.96-202.78 181.96-303.26s-81.473-181.96-181.96-181.96z" stroke="#80ffff" stroke-width="16.02" fill="#008080"/>
 </g>
 <ellipse cx="145.56" cy="190.43" rx="122.57" ry="121.94" fill="#005959" stroke-width="1.8699"/>
 <path d="m227.86 141.38-28.009 28.009-24.501-8.7524-8.7517-24.5 28.009-28.01c-18.377-6.1475-39.464-1.9165-54.097 12.717-14.363 14.363-18.703 34.941-13.047 53.074-0.76162 0.6002-1.4998 1.2457-2.2026 1.9483l-57.521 57.521c-9.6269 9.6263-9.6269 25.234 0 34.861 9.6268 9.626 25.235 9.626 34.862 0l57.521-57.522c0.70272-0.70297 1.3472-1.4404 1.948-2.2021 18.132 5.6561 38.71 1.3158 53.073-13.048 14.633-14.633 18.864-35.719 12.716-54.097z" stroke-width=".56042" fill="#80ffff"/>
</svg>