<svg xmlns="http://www.w3.org/2000/svg" width="46" height="60" version="1.1" viewBox="0 0 291.44 501.24">
 <g transform="translate(-96.888 8.0118)" stroke="#fff" stroke-width="16.02" fill="#a08844">
  <path d="m242.61 0c-100.48 0-181.96 81.473-181.96 181.96s151.63 303.26 181.96 303.26c30.326 0 181.96-202.78 181.96-303.26s-81.473-181.96-181.96-181.96z" stroke="#fff" stroke-width="16.02" fill="#a08844"/>
 </g>
 <ellipse cx="146.02" cy="190.43" rx="122.57" ry="121.94" fill="#847138" stroke-width="1.8699"/>
 <path d="m138.43 100.96v20.518c20.495 0 13.612 6.8792 27.279 6.8792h6.8792v-20.519h-6.8792c-13.663 0-6.7841-6.879-27.279-6.879zm-53.135 37.242c-2.0951 0-3.7954 1.7002-3.7954 3.7953v11.386h129.04v-11.386c0-2.0952-1.6965-3.7953-3.7952-3.7953zm-30.363 22.772c-2.0951 0-3.7954 1.6967-3.7954 3.7953v79.703c0 2.0992 1.7003 3.7956 3.7954 3.7956h182.18c2.0988 0 3.7954-1.6964 3.7954-3.7956v-79.703c0-2.0986-1.6965-3.7953-3.7954-3.7953zm18.977 18.977h11.386v18.977h-11.386zm26.568 0h11.386v18.977h-11.386zm26.568 0h11.386v18.977h-11.386zm26.568 0h11.386v18.977h-11.386zm26.568 0h11.386v18.977h-11.386zm26.568 0h11.386v18.977h-11.386zm-132.84 30.363h11.386v18.977h-11.386zm26.568 0h11.386v18.977h-11.386zm26.568 0h11.386v18.977h-11.386zm26.568 0h11.386v18.977h-11.386zm26.568 0h11.386v18.977h-11.386zm26.568 0h11.386v18.977h-11.386z" stroke-width="3.7954" fill="#f7f4ec"/>
</svg>