<svg width="36" height="40" version="1.1" viewBox="0 0 12.226 13.394" xmlns="http://www.w3.org/2000/svg">
 <path d="m11.731 5.4963-1.251-0.70422 0.73128-1.2354c0.10786-0.17263 0.1108-0.35304 0.0091-0.54134-0.11005-0.18095-0.26726-0.2697-0.47176-0.26621l-1.4429 0.017019 0.02274-1.4381c0.00471-0.21163-0.085523-0.36721-0.2713-0.46623-0.17859-0.1113-0.35842-0.11188-0.53942-0.00179l-1.2339 0.73869-0.70677-1.258c-0.1005-0.18357-0.25514-0.27298-0.46426-0.26825-0.21063-8.316e-5 -0.36597 0.090404-0.46628 0.2712l-0.70225 1.2583-1.2373-0.73862c-0.17866-0.11123-0.35843-0.11181-0.53938-0.00174-0.18351 0.10049-0.27291 0.25528-0.26816 0.4645l0.017019 1.4429-1.4381-0.02274c-0.21175-0.00488-0.36715 0.085542-0.46623 0.27125-0.11126 0.17861-0.11188 0.3584-0.00174 0.53938l0.73869 1.2341-1.2581 0.70669c-0.17871 0.099203-0.27054 0.25465-0.27534 0.4664 0.005937 0.21397 0.098796 0.36871 0.27837 0.46432l1.2511 0.70419-0.73138 1.2354c-0.10772 0.17254-0.11068 0.353-0.00894 0.54121 0.11004 0.18102 0.26729 0.26972 0.47166 0.2663l1.4428-0.017116-0.022692 1.4381c-0.00491 0.21174 0.085495 0.36708 0.27119 0.46625 0.17865 0.1112 0.3584 0.1117 0.53936 0.0017l1.2341-0.73856c0.32871 0.60036 0.59139 2.7839 1.1731 2.9956 0.64843-0.18686 0.83951-2.4073 1.1685-2.9918l1.2354 0.73148c0.12396 0.07958 0.26014 0.09954 0.40851 0.05979 0.033665-9e-3 0.077784-0.02591 0.13285-0.05089 0.18089-0.11011 0.26953-0.26729 0.26609-0.47163l-0.01709-1.4427 1.438 0.022689c0.21178 0.00469 0.36724-0.085678 0.46625-0.2713 0.11126-0.17875 0.11186-0.3585 0.0018-0.5394l-0.73863-1.2341 1.258-0.70649c0.17891-0.099229 0.27056-0.25476 0.27544-0.46645-6e-3 -0.21394-0.0988-0.36873-0.27859-0.46426z" fill="#847138" stroke="#fff" stroke-linecap="round" stroke-linejoin="round" stroke-width=".43214"/>
 <path d="m5.9194 1.7686v0.30835c-0.80706 0.067857-1.5122 0.49856-1.9519 1.128l-0.26806-0.15474-0.22423 0.38825 0.2674 0.15428c-0.16139 0.34236-0.25168 0.72446-0.25168 1.1274 0 0.4029 0.090286 0.78501 0.25168 1.1274l-0.2674 0.15428 0.22423 0.38849 0.26806-0.15474c0.26767 0.3833 0.63369 0.6928 1.0614 0.89165l-0.36147 0.99301h-1.955v0.44844h6.8002v-0.44844h-1.8928l-0.36147-0.99301c0.42769-0.19883 0.79396-0.50833 1.0616-0.89165l0.26806 0.15474 0.22401-0.38849-0.26717-0.15428c0.16139-0.34235 0.25169-0.72446 0.25169-1.1274 0-0.40286-0.090298-0.78501-0.25169-1.1274l0.26717-0.15428-0.22401-0.38825-0.26806 0.15474c-0.43961-0.62947-1.1448-1.0602-1.9519-1.128v-0.30835zm0 0.75859v1.1792c0.072245-0.015964 0.14725-0.024808 0.22423-0.024808 0.076972 0 0.15177 0.00888 0.22401 0.024808v-1.1792c0.64155 0.065082 1.2026 0.4065 1.5621 0.90291l-1.0205 0.58925c0.10097 0.11022 0.17851 0.24226 0.2247 0.38803l1.0206-0.58944c0.1241 0.27554 0.19324 0.58092 0.19324 0.9022 0 0.32129-0.069121 0.62693-0.19324 0.90248l-1.0206-0.58944c-0.046181 0.14578-0.12372 0.27779-0.2247 0.38803l1.0205 0.58925c-0.21293 0.29396-0.49649 0.53366-0.82567 0.6937l-0.40329-1.1081c-0.12486 0.079764-0.26784 0.13347-0.42124 0.15364l0.40329 1.1081c-0.17269 0.04362-0.35338 0.06684-0.53945 0.06684-0.18605 0-0.36653-0.023218-0.53921-0.06684l0.40329-1.1081c-0.15342-0.020168-0.29637-0.073873-0.42124-0.15364l-0.40333 1.1081c-0.32918-0.16002-0.6127-0.39974-0.82567-0.6937l1.0207-0.58925c-0.10097-0.11024-0.1785-0.24226-0.22468-0.38803l-1.0209 0.58944c-0.1241-0.27554-0.19324-0.58116-0.19324-0.90248 0-0.32129 0.069141-0.62666 0.19324-0.9022l1.0209 0.58944c0.046181-0.14579 0.12371-0.27781 0.22468-0.38803l-1.0207-0.58925c0.35955-0.49641 0.92058-0.83778 1.5621-0.90291zm0.22423 1.6028c-0.3255 0-0.59034 0.26466-0.59034 0.59011 0 0.3255 0.26488 0.59038 0.59034 0.59038 0.32548 0 0.59011-0.26488 0.59011-0.59038 0-0.32546-0.26463-0.59011-0.59011-0.59011zm-0.6935 3.1508c0.15151 0.041093 0.30837 0.06904 0.46928 0.082578v0.30857h0.44844v-0.30858c0.1609-0.013533 0.31775-0.041482 0.46928-0.082578l0.30547 0.83943h-1.9979z" fill="#f7f4ec" stroke-width=".014945"/>
</svg>
