<svg width="36" height="40" version="1.1" viewBox="0 0 12.226 13.394" xmlns="http://www.w3.org/2000/svg">
 <path d="m11.731 5.4963-1.251-0.70422 0.73128-1.2354c0.10786-0.17263 0.1108-0.35304 0.0091-0.54134-0.11005-0.18095-0.26726-0.2697-0.47176-0.26621l-1.4429 0.017019 0.02274-1.4381c0.00471-0.21163-0.085523-0.36721-0.2713-0.46623-0.17859-0.1113-0.35842-0.11188-0.53942-0.00179l-1.2339 0.73869-0.70677-1.258c-0.1005-0.18357-0.25514-0.27298-0.46426-0.26825-0.21063-8.316e-5 -0.36597 0.090404-0.46628 0.2712l-0.70225 1.2583-1.2373-0.73862c-0.17866-0.11123-0.35843-0.11181-0.53938-0.00174-0.18351 0.10049-0.27291 0.25528-0.26816 0.4645l0.017019 1.4429-1.4381-0.02274c-0.21175-0.00488-0.36715 0.085542-0.46623 0.27125-0.11126 0.17861-0.11188 0.3584-0.00174 0.53938l0.73869 1.2341-1.2581 0.70669c-0.17871 0.099203-0.27054 0.25465-0.27534 0.4664 0.005937 0.21397 0.098796 0.36871 0.27837 0.46432l1.2511 0.70419-0.73138 1.2354c-0.10772 0.17254-0.11068 0.353-0.00894 0.54121 0.11004 0.18102 0.26729 0.26972 0.47166 0.2663l1.4428-0.017116-0.022692 1.4381c-0.00491 0.21174 0.085495 0.36708 0.27119 0.46625 0.17865 0.1112 0.3584 0.1117 0.53936 0.0017l1.2341-0.73856c0.32871 0.60036 0.59139 2.7839 1.1731 2.9956 0.64843-0.18686 0.83951-2.4073 1.1685-2.9918l1.2354 0.73148c0.12396 0.07958 0.26014 0.09954 0.40851 0.05979 0.033665-9e-3 0.077784-0.02591 0.13285-0.05089 0.18089-0.11011 0.26953-0.26729 0.26609-0.47163l-0.01709-1.4427 1.438 0.022689c0.21178 0.00469 0.36724-0.085678 0.46625-0.2713 0.11126-0.17875 0.11186-0.3585 0.0018-0.5394l-0.73863-1.2341 1.258-0.70649c0.17891-0.099229 0.27056-0.25476 0.27544-0.46645-6e-3 -0.21394-0.0988-0.36873-0.27859-0.46426z" fill="#847138" stroke="#fff" stroke-linecap="round" stroke-linejoin="round" stroke-width=".43214"/>
 <path d="m8.1524 5.4833c-0.051463 0-0.10208 0.00345-0.15194 0.00916l-0.31331-1.029c0.030586-0.034213 0.049187-0.078615 0.049187-0.12722 0-0.10802-0.091288-0.19564-0.20391-0.19564h-0.8411c-0.11259 0-0.20391 0.087615-0.20391 0.19564 0 0.10802 0.091326 0.19561 0.20391 0.19561h0.5327l-0.21658 0.33074c-0.00956-0.00129-0.019388-0.00181-0.029207-0.00166l-1.8209 0.025341c0.045104-0.035885 0.073886-0.090086 0.073886-0.15069 0-0.10802-0.091307-0.19562-0.20391-0.19562h-0.49122c-0.11261 0-0.20392 0.087601-0.20392 0.19562 0 0.10802 0.091307 0.19562 0.20392 0.19562h0.036659c0.00497 0.017525 0.012298 0.034677 0.022626 0.05094l0.081896 0.12929-0.22603 0.42777c-0.11957-0.036365-0.24681-0.056096-0.37878-0.056096-0.69301 2.14e-5 -1.2568 0.54089-1.2568 1.2058 0 0.66484 0.56383 1.2058 1.2568 1.2058 0.59848 0 1.1002-0.40352 1.2261-0.94174l0.67251 0.037329c0.00387 2.428e-4 0.00792 3.716e-4 0.011796 3.716e-4 0.069826 0 0.13519-0.034389 0.17263-0.091566l1.2618-1.9268 0.19174 0.62963c-0.42166 0.19482-0.71337 0.60888-0.71337 1.0871 0 0.66484 0.56378 1.2058 1.2568 1.2058 0.69305 0 1.2569-0.54089 1.2569-1.2058 0-0.66488-0.56386-1.2058-1.2569-1.2058zm-3.2259 0.021875 0.67961 1.0731-0.28385-0.01575c-0.037834-0.34644-0.22932-0.64954-0.50762-0.84565zm-1.7031 1.1838c0-0.4491 0.38086-0.81453 0.84901-0.81453 0.065539 0 0.12932 0.00734 0.19064 0.020956l-0.37251 0.70511c-0.031104 0.058831-0.029181 0.12874 0.00504 0.18596 0.0343 0.057201 0.096326 0.093943 0.16498 0.09775l0.82286 0.045683c-0.10731 0.33186-0.43028 0.57353-0.81101 0.57353-0.46811 0-0.84901-0.36539-0.84901-0.81449zm1.1716-0.17806 0.23153-0.4382c0.14287 0.11843 0.24423 0.28156 0.28021 0.46662zm1.5903-0.087518-0.72659-1.1472 1.4915-0.02074zm2.1671 1.0801c-0.46815 0-0.84901-0.36539-0.84901-0.81449 0-0.29996 0.17-0.56236 0.42228-0.7037l0.23101 0.75854c0.031604 0.10373 0.14489 0.16327 0.25288 0.13295 0.10811-0.030303 0.17014-0.13895 0.13856-0.24261l-0.23103-0.75881c0.011723-5.162e-4 0.023486-9.249e-4 0.035325-9.249e-4 0.46815 0 0.84901 0.36536 0.84901 0.81449 0 0.4491-0.38083 0.81449-0.84901 0.81449z" fill="#f7f4ec" stroke-width=".019972"/>
</svg>
