<svg width="36" height="40" version="1.1" viewBox="0 0 12.226 13.394" xmlns="http://www.w3.org/2000/svg">
 <path d="m11.731 5.4963-1.251-0.70422 0.73128-1.2354c0.10786-0.17263 0.1108-0.35304 0.0091-0.54134-0.11005-0.18095-0.26726-0.2697-0.47176-0.26621l-1.4429 0.017019 0.02274-1.4381c0.00471-0.21163-0.085523-0.36721-0.2713-0.46623-0.17859-0.1113-0.35842-0.11188-0.53942-0.00179l-1.2339 0.73869-0.70677-1.258c-0.1005-0.18357-0.25514-0.27298-0.46426-0.26825-0.21063-8.316e-5 -0.36597 0.090404-0.46628 0.2712l-0.70225 1.2583-1.2373-0.73862c-0.17866-0.11123-0.35843-0.11181-0.53938-0.00174-0.18351 0.10049-0.27291 0.25528-0.26816 0.4645l0.017019 1.4429-1.4381-0.02274c-0.21175-0.00488-0.36715 0.085542-0.46623 0.27125-0.11126 0.17861-0.11188 0.3584-0.00174 0.53938l0.73869 1.2341-1.2581 0.70669c-0.17871 0.099203-0.27054 0.25465-0.27534 0.4664 0.005937 0.21397 0.098796 0.36871 0.27837 0.46432l1.2511 0.70419-0.73138 1.2354c-0.10772 0.17254-0.11068 0.353-0.00894 0.54121 0.11004 0.18102 0.26729 0.26972 0.47166 0.2663l1.4428-0.017116-0.022692 1.4381c-0.00491 0.21174 0.085495 0.36708 0.27119 0.46625 0.17865 0.1112 0.3584 0.1117 0.53936 0.0017l1.2341-0.73856c0.32871 0.60036 0.59139 2.7839 1.1731 2.9956 0.64843-0.18686 0.83951-2.4073 1.1685-2.9918l1.2354 0.73148c0.12396 0.07958 0.26014 0.09954 0.40851 0.05979 0.033665-9e-3 0.077784-0.02591 0.13285-0.05089 0.18089-0.11011 0.26953-0.26729 0.26609-0.47163l-0.01709-1.4427 1.438 0.022689c0.21178 0.00469 0.36724-0.085678 0.46625-0.2713 0.11126-0.17875 0.11186-0.3585 0.0018-0.5394l-0.73863-1.2341 1.258-0.70649c0.17891-0.099229 0.27056-0.25476 0.27544-0.46645-6e-3 -0.21394-0.0988-0.36873-0.27859-0.46426z" fill="#847138" stroke="#fff" stroke-linecap="round" stroke-linejoin="round" stroke-width=".43214"/>
 <g transform="matrix(.012789 0 0 .012789 2.8385 2.5738)" fill="#f7f4ec">
  <path d="m32 271.69v192c0 17.664 14.368 32 32 32h160v-224z" fill="#f7f4ec"/>
  <path d="m480 143.69h-101.25c7.264-4.96 13.504-9.888 17.856-14.304 25.824-25.952 25.824-68.192 0-94.144-25.088-25.28-68.8-25.216-93.856 0-13.888 13.92-50.688 70.592-45.6 108.45h-2.304c5.056-37.856-31.744-94.528-45.6-108.45-25.088-25.216-68.8-25.216-93.856 0-25.792 25.952-25.792 68.192-0.032 94.144 4.384 4.416 10.624 9.344 17.888 14.304h-101.25c-17.632 0-32 14.368-32 32v48c0 8.832 7.168 16 16 16h208v-64h64v64h208c8.832 0 16-7.168 16-16v-48c0-17.632-14.336-32-32-32zm-257.89-1.056s-1.344 1.056-5.92 1.056c-22.112 0-64.32-22.976-78.112-36.864-13.408-13.504-13.408-35.52 0-49.024 6.496-6.528 15.104-10.112 24.256-10.112 9.12 0 17.728 3.584 24.224 10.112 21.568 21.696 43.008 77.12 35.552 84.832zm73.664 1.056c-4.544 0-5.888-1.024-5.888-1.056-7.456-7.712 13.984-63.136 35.552-84.832 12.896-13.024 35.456-13.088 48.48 0 13.44 13.504 13.44 35.52 0 49.024-13.792 13.888-56 36.864-78.144 36.864z" fill="#f7f4ec"/>
  <path d="m288 271.69v224h160c17.664 0 32-14.336 32-32v-192z" fill="#f7f4ec"/>
 </g>
</svg>
