<svg width="36" height="40" version="1.1" viewBox="0 0 12.226 13.394" xmlns="http://www.w3.org/2000/svg">
 <path d="m11.731 5.4963-1.251-0.70422 0.73128-1.2354c0.10786-0.17263 0.1108-0.35304 0.0091-0.54134-0.11005-0.18095-0.26726-0.2697-0.47176-0.26621l-1.4429 0.017019 0.02274-1.4381c0.00471-0.21163-0.085523-0.36721-0.2713-0.46623-0.17859-0.1113-0.35842-0.11188-0.53942-0.00179l-1.2339 0.73869-0.70677-1.258c-0.1005-0.18357-0.25514-0.27298-0.46426-0.26825-0.21063-8.316e-5 -0.36597 0.090404-0.46628 0.2712l-0.70225 1.2583-1.2373-0.73862c-0.17866-0.11123-0.35843-0.11181-0.53938-0.00174-0.18351 0.10049-0.27291 0.25528-0.26816 0.4645l0.017019 1.4429-1.4381-0.02274c-0.21175-0.00488-0.36715 0.085542-0.46623 0.27125-0.11126 0.17861-0.11188 0.3584-0.00174 0.53938l0.73869 1.2341-1.2581 0.70669c-0.17871 0.099203-0.27054 0.25465-0.27534 0.4664 0.005937 0.21397 0.098796 0.36871 0.27837 0.46432l1.2511 0.70419-0.73138 1.2354c-0.10772 0.17254-0.11068 0.353-0.00894 0.54121 0.11004 0.18102 0.26729 0.26972 0.47166 0.2663l1.4428-0.017116-0.022692 1.4381c-0.00491 0.21174 0.085495 0.36708 0.27119 0.46625 0.17865 0.1112 0.3584 0.1117 0.53936 0.0017l1.2341-0.73856c0.32871 0.60036 0.59139 2.7839 1.1731 2.9956 0.64843-0.18686 0.83951-2.4073 1.1685-2.9918l1.2354 0.73148c0.12396 0.07958 0.26014 0.09954 0.40851 0.05979 0.033665-9e-3 0.077784-0.02591 0.13285-0.05089 0.18089-0.11011 0.26953-0.26729 0.26609-0.47163l-0.01709-1.4427 1.438 0.022689c0.21178 0.00469 0.36724-0.085678 0.46625-0.2713 0.11126-0.17875 0.11186-0.3585 0.0018-0.5394l-0.73863-1.2341 1.258-0.70649c0.17891-0.099229 0.27056-0.25476 0.27544-0.46645-6e-3 -0.21394-0.0988-0.36873-0.27859-0.46426z" fill="#847138" stroke="#fff" stroke-linecap="round" stroke-linejoin="round" stroke-width=".43214"/>
 <g transform="matrix(.024755 0 0 .024755 2.2837 2.0532)" fill="#f7f4ec">
  <path d="m265.94 94.98h-68.327c-2.424 19.732-12.289 37.804-27.902 50.606-1.487 1.22-3.283 1.813-5.067 1.813-2.314 0-4.609-0.998-6.191-2.928-2.801-3.416-2.303-8.457 1.114-11.259 14.387-11.797 22.639-29.221 22.639-47.804 0-34.068-27.716-61.785-61.783-61.785-31.873 0-58.182 24.26-61.441 55.283-3.953 2.287-7.626 5.008-10.93 8.157-1.22 1.163-2.361 2.364-3.445 3.591-13.82 15.65-16.857 36.116-16.857 51.041 0 6.395 0.17 12.796 0.335 18.987 0.493 18.569 1.107 41.68-5.024 47.977-0.475 0.486-1.917 1.968-7.055 1.968-8.837 0-16 7.163-16 16s7.163 16 16 16c12.37 0 22.457-3.917 29.98-11.643 10.047-10.317 13.303-25.156 14.148-42.017 1.896 0.056 3.912 0.091 6.038 0.091 15.958 0 37.519-1.92 54.603-10.49 0 0-1.167 7.399-1.167 9.491v63.672c0 11.379 10.748 20.248 22.143 20.248h0.304c11.396 0 20.553-8.869 20.553-20.248v-32.751h76v33.012c0 11.234 9.44 19.988 20.676 19.988h0.314c11.235 0 20.01-8.754 20.01-19.988v-36.479c10-5.031 16-15.023 16-26.533v-64c-1e-3 -16.569-13.1-30-29.668-30zm-206.94 46.25c0-4.168 3.377-7.547 7.545-7.547s7.546 3.379 7.546 7.547c0 4.166-3.378 7.545-7.546 7.545s-7.545-3.379-7.545-7.545z" fill="#f7f4ec"/>
 </g>
</svg>
