<svg width="36" height="40" version="1.1" viewBox="0 0 12.226 13.394" xmlns="http://www.w3.org/2000/svg">
 <path d="m11.731 5.4963-1.251-0.70422 0.73128-1.2354c0.10786-0.17263 0.1108-0.35304 0.0091-0.54134-0.11005-0.18095-0.26726-0.2697-0.47176-0.26621l-1.4429 0.017019 0.02274-1.4381c0.00471-0.21163-0.085523-0.36721-0.2713-0.46623-0.17859-0.1113-0.35842-0.11188-0.53942-0.00179l-1.2339 0.73869-0.70677-1.258c-0.1005-0.18357-0.25514-0.27298-0.46426-0.26825-0.21063-8.316e-5 -0.36597 0.090404-0.46628 0.2712l-0.70225 1.2583-1.2373-0.73862c-0.17866-0.11123-0.35843-0.11181-0.53938-0.00174-0.18351 0.10049-0.27291 0.25528-0.26816 0.4645l0.017019 1.4429-1.4381-0.02274c-0.21175-0.00488-0.36715 0.085542-0.46623 0.27125-0.11126 0.17861-0.11188 0.3584-0.00174 0.53938l0.73869 1.2341-1.2581 0.70669c-0.17871 0.099203-0.27054 0.25465-0.27534 0.4664 0.005937 0.21397 0.098796 0.36871 0.27837 0.46432l1.2511 0.70419-0.73138 1.2354c-0.10772 0.17254-0.11068 0.353-0.00894 0.54121 0.11004 0.18102 0.26729 0.26972 0.47166 0.2663l1.4428-0.017116-0.022692 1.4381c-0.00491 0.21174 0.085495 0.36708 0.27119 0.46625 0.17865 0.1112 0.3584 0.1117 0.53936 0.0017l1.2341-0.73856c0.32871 0.60036 0.59139 2.7839 1.1731 2.9956 0.64843-0.18686 0.83951-2.4073 1.1685-2.9918l1.2354 0.73148c0.12396 0.07958 0.26014 0.09954 0.40851 0.05979 0.033665-9e-3 0.077784-0.02591 0.13285-0.05089 0.18089-0.11011 0.26953-0.26729 0.26609-0.47163l-0.01709-1.4427 1.438 0.022689c0.21178 0.00469 0.36724-0.085678 0.46625-0.2713 0.11126-0.17875 0.11186-0.3585 0.0018-0.5394l-0.73863-1.2341 1.258-0.70649c0.17891-0.099229 0.27056-0.25476 0.27544-0.46645-6e-3 -0.21394-0.0988-0.36873-0.27859-0.46426z" fill="#847138" stroke="#fff" stroke-linecap="round" stroke-linejoin="round" stroke-width=".43214"/>
 <g transform="matrix(.011918 0 0 .01132 3.0616 3.1197)" fill="#f7f4ec">
  <path d="m511.17 28.134c-1.643-3.989-5.547-6.592-9.856-6.592-80.043 0-153.07 25.237-195.31 67.477-24.384 24.384-34.005 60.48-25.067 94.251 1.088 4.139 4.565 7.232 8.811 7.829 4.267 0.597 8.448-1.365 10.645-5.056 19.541-32.469 43.648-63.125 71.637-91.136 4.16-4.16 10.923-4.16 15.083 0s4.16 10.923 0 15.083c-8.192 8.192-15.637 16.32-22.699 24.384-0.683 0.789-1.323 1.579-2.005 2.368-39.979 46.251-62.336 89.301-73.835 117.12-13.867-43.349-39.851-117.78-63.573-149.23 14.571-21.141 12.544-50.347-6.251-69.12-22.42-22.443-59.391-35.307-101.42-35.307-4.309 0-8.213 2.603-9.856 6.592-1.664 3.989-0.747 8.576 2.304 11.627 9.707 9.685 12.821 28.736 15.851 47.125 3.093 18.731 5.995 36.416 16.341 46.763 10.581 10.581 24.491 15.872 38.4 15.872 10.197 0 20.352-2.901 29.227-8.576 24.789 34.709 57.045 133.55 68.16 171.6 1.344 4.565 5.504 7.659 10.24 7.659h0.256c4.821-0.107 8.981-3.477 10.112-8.171 0.107-0.405 5.355-21.376 21.205-52.693 16.896 11.861 36.395 18.112 56.021 18.091 25.003 0 49.92-9.557 68.928-28.565 18.261-18.261 23.808-51.989 29.675-87.68 6.336-38.485 12.885-78.293 34.667-100.1 3.051-3.051 3.968-7.638 2.304-11.627z" fill="#f7f4ec"/>
  <path d="m124.67 259.52c-18.283-17.344-91.392-22.933-113.36-24.235-2.965 0-5.803 0.875-7.957 2.88-2.134 2.027-3.35 4.843-3.35 7.766v213.35c0 5.888 4.779 10.667 10.667 10.667h64c4.608 0 8.704-2.965 10.133-7.36 1.557-4.779 38.315-138.94 43.157-194.41 0.278-3.221-0.917-6.421-3.285-8.661z" fill="#f7f4ec"/>
  <path d="m448 374.12-74.667 31.872c-20.672 1.003-63.659-0.341-74.667-0.192-10.837 0.149-66.24-17.621-57.557-21.141 1.813-0.747 6.443-0.896 14.891-0.192 48.725 4.053 128 13.867 128-21.333s-85.909-42.667-106.67-42.667-55.552-18.625-85.333-21.334c-11.84-1.067-28.096-2.688-44.608-3.712-6.741 45.867-26.389 112.34-36.501 144.85l113.11 51.158c42.325 16 71.104 36.437 160 0 0 0 128-54.336 128-85.333 0-25.622-29.333-43.969-64-31.979z" fill="#f7f4ec"/>
 </g>
</svg>
