<svg width="36" height="40" version="1.1" viewBox="0 0 12.226 13.394" xmlns="http://www.w3.org/2000/svg">
 <path d="m11.731 5.4963-1.251-0.70422 0.73128-1.2354c0.10786-0.17263 0.1108-0.35304 0.0091-0.54134-0.11005-0.18095-0.26726-0.2697-0.47176-0.26621l-1.4429 0.017019 0.02274-1.4381c0.00471-0.21163-0.085523-0.36721-0.2713-0.46623-0.17859-0.1113-0.35842-0.11188-0.53942-0.00179l-1.2339 0.73869-0.70677-1.258c-0.1005-0.18357-0.25514-0.27298-0.46426-0.26825-0.21063-8.316e-5 -0.36597 0.090404-0.46628 0.2712l-0.70225 1.2583-1.2373-0.73862c-0.17866-0.11123-0.35843-0.11181-0.53938-0.00174-0.18351 0.10049-0.27291 0.25528-0.26816 0.4645l0.017019 1.4429-1.4381-0.02274c-0.21175-0.00488-0.36715 0.085542-0.46623 0.27125-0.11126 0.17861-0.11188 0.3584-0.00174 0.53938l0.73869 1.2341-1.2581 0.70669c-0.17871 0.099203-0.27054 0.25465-0.27534 0.4664 0.005937 0.21397 0.098796 0.36871 0.27837 0.46432l1.2511 0.70419-0.73138 1.2354c-0.10772 0.17254-0.11068 0.353-0.00894 0.54121 0.11004 0.18102 0.26729 0.26972 0.47166 0.2663l1.4428-0.017116-0.022692 1.4381c-0.00491 0.21174 0.085495 0.36708 0.27119 0.46625 0.17865 0.1112 0.3584 0.1117 0.53936 0.0017l1.2341-0.73856c0.32871 0.60036 0.59139 2.7839 1.1731 2.9956 0.64843-0.18686 0.83951-2.4073 1.1685-2.9918l1.2354 0.73148c0.12396 0.07958 0.26014 0.09954 0.40851 0.05979 0.033665-9e-3 0.077784-0.02591 0.13285-0.05089 0.18089-0.11011 0.26953-0.26729 0.26609-0.47163l-0.01709-1.4427 1.438 0.022689c0.21178 0.00469 0.36724-0.085678 0.46625-0.2713 0.11126-0.17875 0.11186-0.3585 0.0018-0.5394l-0.73863-1.2341 1.258-0.70649c0.17891-0.099229 0.27056-0.25476 0.27544-0.46645-6e-3 -0.21394-0.0988-0.36873-0.27859-0.46426z" fill="#847138" stroke="#fff" stroke-linecap="round" stroke-linejoin="round" stroke-width=".43214"/>
 <g transform="matrix(.014175 0 0 .014175 2.7588 3.1734)" fill="#f7f4ec">
  <path d="m464.65 167.76c-0.824-3.273-2.996-6.037-5.969-7.633-2.965-1.586-6.47-1.855-9.65-0.738-27.88 9.795-70.896 16.098-119.28 16.098-11.762 0-23.098-0.449-34.089-1.156-5.683 25.676-14.764 49.252-26.363 70.016 0.564-0.023 1.103-0.115 1.672-0.115 15.034 0 27.218-1.254 27.218 8.873s-12.185 27.803-27.218 27.803c-8.757 0-16.467-2.834-21.442-7.162-15.025 18.654-32.578 33.363-51.909 43.09 21.795 73.361 72.751 124.82 132.13 124.82 79.219 0 143.44-91.584 143.44-204.56-1e-3 -24.37-3.044-47.69-8.542-69.341zm-77.733 214.17c-0.254 1.078-1.056 1.957-2.11 2.303-1.056 0.353-2.218 0.131-3.066-0.586-11.174-9.389-30.182-15.627-51.985-15.627-21.805 0-40.813 6.238-51.986 15.627-0.849 0.709-2.012 0.932-3.066 0.586-1.055-0.354-1.856-1.225-2.11-2.303-0.925-3.936-1.494-7.994-1.494-12.215 0-32.395 26.263-58.656 58.657-58.656s58.655 26.262 58.655 58.656c-2e-3 4.221-0.571 8.28-1.495 12.215zm1.617-101.02c-15.034 0-27.218-17.676-27.218-27.803s12.185-8.873 27.218-8.873 27.218 8.211 27.218 18.338c-1e-3 10.127-12.185 18.338-27.218 18.338z" fill="#f7f4ec"/>
  <path d="m286.87 109.92c0-24.367-3.043-47.688-8.541-69.338-0.824-3.273-2.996-6.039-5.969-7.633-1.756-0.939-3.705-1.416-5.669-1.416-1.341 0-2.688 0.221-3.981 0.678-27.88 9.795-70.895 16.096-119.28 16.096-48.382 0-91.397-6.301-119.28-16.096-1.286-0.457-2.626-0.678-3.966-0.678-1.963 0-3.921 0.482-5.685 1.424-2.965 1.594-5.144 4.359-5.969 7.625-5.498 21.651-8.541 44.971-8.541 69.338 0 112.98 64.217 204.56 143.44 204.56 79.219 0 143.44-91.582 143.44-204.56zm-229.44 25.424c0-10.129 12.185-18.338 27.219-18.338 15.033 0 27.218 17.674 27.218 27.803 0 10.127-12.185 8.873-27.218 8.873-15.034 0-27.219-8.211-27.219-18.338zm85.999 140.46c-32.395 0-58.656-26.262-58.656-58.654 0-4.221 0.569-8.281 1.493-12.217 0.254-1.076 1.056-1.947 2.11-2.303 1.056-0.346 2.218-0.123 3.066 0.586 11.174 9.389 30.182 15.627 51.986 15.627s40.812-6.238 51.985-15.627c0.849-0.717 2.011-0.939 3.066-0.586 1.055 0.348 1.856 1.227 2.11 2.303 0.924 3.936 1.494 7.996 1.494 12.217 1e-3 32.392-26.261 58.654-58.654 58.654zm31.56-131c0-10.129 12.185-27.803 27.219-27.803 15.033 0 27.218 8.209 27.218 18.338 0 10.127-12.185 18.338-27.218 18.338-15.034 0-27.219 1.254-27.219-8.873z" fill="#f7f4ec"/>
 </g>
</svg>
