<svg width="36" height="40" version="1.1" viewBox="0 0 12.226 13.394" xmlns="http://www.w3.org/2000/svg">
 <path d="m11.731 5.4963-1.251-0.70422 0.73128-1.2354c0.10786-0.17263 0.1108-0.35304 0.0091-0.54134-0.11005-0.18095-0.26726-0.2697-0.47176-0.26621l-1.4429 0.017019 0.02274-1.4381c0.00471-0.21163-0.085523-0.36721-0.2713-0.46623-0.17859-0.1113-0.35842-0.11188-0.53942-0.00179l-1.2339 0.73869-0.70677-1.258c-0.1005-0.18357-0.25514-0.27298-0.46426-0.26825-0.21063-8.316e-5 -0.36597 0.090404-0.46628 0.2712l-0.70225 1.2583-1.2373-0.73862c-0.17866-0.11123-0.35843-0.11181-0.53938-0.00174-0.18351 0.10049-0.27291 0.25528-0.26816 0.4645l0.017019 1.4429-1.4381-0.02274c-0.21175-0.00488-0.36715 0.085542-0.46623 0.27125-0.11126 0.17861-0.11188 0.3584-0.00174 0.53938l0.73869 1.2341-1.2581 0.70669c-0.17871 0.099203-0.27054 0.25465-0.27534 0.4664 0.005937 0.21397 0.098796 0.36871 0.27837 0.46432l1.2511 0.70419-0.73138 1.2354c-0.10772 0.17254-0.11068 0.353-0.00894 0.54121 0.11004 0.18102 0.26729 0.26972 0.47166 0.2663l1.4428-0.017116-0.022692 1.4381c-0.00491 0.21174 0.085495 0.36708 0.27119 0.46625 0.17865 0.1112 0.3584 0.1117 0.53936 0.0017l1.2341-0.73856c0.32871 0.60036 0.59139 2.7839 1.1731 2.9956 0.64843-0.18686 0.83951-2.4073 1.1685-2.9918l1.2354 0.73148c0.12396 0.07958 0.26014 0.09954 0.40851 0.05979 0.033665-9e-3 0.077784-0.02591 0.13285-0.05089 0.18089-0.11011 0.26953-0.26729 0.26609-0.47163l-0.01709-1.4427 1.438 0.022689c0.21178 0.00469 0.36724-0.085678 0.46625-0.2713 0.11126-0.17875 0.11186-0.3585 0.0018-0.5394l-0.73863-1.2341 1.258-0.70649c0.17891-0.099229 0.27056-0.25476 0.27544-0.46645-6e-3 -0.21394-0.0988-0.36873-0.27859-0.46426z" fill="#005959" stroke="#80ffff" stroke-linecap="round" stroke-linejoin="round" stroke-width=".43214"/>
 <g transform="matrix(.018784 0 0 .018784 2.6633 2.5685)" fill="#80ffff">
  <path d="m125.65 121.92c-2.417-6.508-8.949-10.185-15.59-10.185-3.315 0-3.621 0.085-5.595 0.085h-59.304c-7.584 0-13.17 3.591-15.587 10.1l-28.676 87.206c-2.732 7.358 0.96 15.561 8.245 18.32 7.286 2.76 15.407-0.969 18.14-8.326l7.624-20.527s0.544-2.07 0.544 6.967v121.04c0 10.582 8.494 19.16 18.973 19.16s18.973-8.578 18.973-19.16v-79.075s-0.092-0.699 0.644-0.699h7.124c0.703 0 0.664 0.699 0.664 0.699v79.075c0 10.582 8.494 19.16 18.973 19.16s18.973-8.578 18.973-19.16v-121.04c0-9.182 0.797-6.289 0.797-6.289l7.372 19.851c2.731 7.358 10.854 11.086 18.14 8.326 7.285-2.761 10.978-10.962 8.245-18.319z" fill="#80ffff"/>
  <ellipse cx="77.991" cy="61.825" rx="40.736" ry="40.317"/>
  <circle cx="285.82" cy="61.599" r="40.736"></circle>
  <path d="m365.92 207.19-34.758-84.667c-1.988-4.272-3.747-9.997-11.914-9.997h-61.687c-8.146 0-12.396 5.308-14.727 10.089l-36.103 84.027c-3.438 7.055-0.566 15.578 6.411 19.039 6.982 3.46 15.43 0.547 18.868-6.51l2.717-5.571s0.844-1.503 0.527 0.159c-1.965 10.348-7.391 41.475-7.391 41.475-1.318 6.477 3.009 11.777 9.619 11.777h15.722c1.125 0 0.925 0.848 0.925 0.848v62.566c0 10.479 6.526 15.973 14.58 15.973 8.051 0 14.581-5.494 14.581-15.973v-62.816s-0.033-0.62 0.623-0.598c0.847 0.027 2.991 4e-3 3.952 4e-3 0.548 0 0.479 0.66 0.479 0.66v62.75c0 10.479 6.53 15.973 14.584 15.973 8.051 0 14.58-5.494 14.58-15.973v-62.399s-0.096-1.015 1.112-1.015h16.912c6.609 0 11.043-5.32 9.851-11.822 0 0-5.438-33.385-6.887-42.48-0.415-2.607 3.916 6.65 3.916 6.65 3.312 7.115 9.708 10.086 16.749 6.753 7.047-3.334 10.071-11.804 6.759-18.922z" fill="#80ffff"/>
  <path d="m190.44 338.75c0 3.85-3.149 7-7 7h-3c-3.85 0-7-3.15-7-7v-306.64c0-3.85 3.15-7 7-7h3c3.85 0 7 3.15 7 7z" fill="#80ffff"/>
 </g>
</svg>
