<svg width="36" height="40" version="1.1" viewBox="0 0 12.226 13.394" xmlns="http://www.w3.org/2000/svg">
 <path d="m11.731 5.4963-1.251-0.70422 0.73128-1.2354c0.10786-0.17263 0.1108-0.35304 0.0091-0.54134-0.11005-0.18095-0.26726-0.2697-0.47176-0.26621l-1.4429 0.017019 0.02274-1.4381c0.00471-0.21163-0.085523-0.36721-0.2713-0.46623-0.17859-0.1113-0.35842-0.11188-0.53942-0.00179l-1.2339 0.73869-0.70677-1.258c-0.1005-0.18357-0.25514-0.27298-0.46426-0.26825-0.21063-8.316e-5 -0.36597 0.090404-0.46628 0.2712l-0.70225 1.2583-1.2373-0.73862c-0.17866-0.11123-0.35843-0.11181-0.53938-0.00174-0.18351 0.10049-0.27291 0.25528-0.26816 0.4645l0.017019 1.4429-1.4381-0.02274c-0.21175-0.00488-0.36715 0.085542-0.46623 0.27125-0.11126 0.17861-0.11188 0.3584-0.00174 0.53938l0.73869 1.2341-1.2581 0.70669c-0.17871 0.099203-0.27054 0.25465-0.27534 0.4664 0.005937 0.21397 0.098796 0.36871 0.27837 0.46432l1.2511 0.70419-0.73138 1.2354c-0.10772 0.17254-0.11068 0.353-0.00894 0.54121 0.11004 0.18102 0.26729 0.26972 0.47166 0.2663l1.4428-0.017116-0.022692 1.4381c-0.00491 0.21174 0.085495 0.36708 0.27119 0.46625 0.17865 0.1112 0.3584 0.1117 0.53936 0.0017l1.2341-0.73856c0.32871 0.60036 0.59139 2.7839 1.1731 2.9956 0.64843-0.18686 0.83951-2.4073 1.1685-2.9918l1.2354 0.73148c0.12396 0.07958 0.26014 0.09954 0.40851 0.05979 0.033665-9e-3 0.077784-0.02591 0.13285-0.05089 0.18089-0.11011 0.26953-0.26729 0.26609-0.47163l-0.01709-1.4427 1.438 0.022689c0.21178 0.00469 0.36724-0.085678 0.46625-0.2713 0.11126-0.17875 0.11186-0.3585 0.0018-0.5394l-0.73863-1.2341 1.258-0.70649c0.17891-0.099229 0.27056-0.25476 0.27544-0.46645-6e-3 -0.21394-0.0988-0.36873-0.27859-0.46426z" fill="#847138" stroke="#fff" stroke-linecap="round" stroke-linejoin="round" stroke-width=".43214"/>
 <g transform="matrix(.013995 0 0 .013995 3.0742 2.3)" fill="#f7f4ec">
  <path d="m36.73 448.03h121.13c-15.072-11.177-27.162-28.32-34.392-48.959-19.476-4.216-34.276-23.932-34.276-47.608 0-24.745 16.178-45.191 36.981-48.08 14.054-33.258 41.26-55.86 72.474-55.888l9.483-118.2h13.309v-27.004h-105.83c-0.32-40.813 28.145-74.32 70.19-74.542 11.139-0.052 11.146-17.34 0-17.284-51.251 0.265-87.965 41.583-87.47 91.818h-98.331v27.004h13.283l23.447 318.74z" fill="#f7f4ec"/>
  <path d="m182.9 443.78c5.077 1.688 10.353 2.686 15.803 2.686h165.96c24.946 0 46.703-18.799 58.236-46.534h-282.44c9.005 21.679 24.273 37.809 42.431 43.848z" fill="#f7f4ec"/>
  <path d="m194.2 302.99h225.66c-12.099-24.017-32.304-39.81-55.183-39.81h-165.96c-0.449 0-0.881 0.076-1.318 0.092-22.328 0.598-42.008 16.175-53.856 39.718h50.666z" fill="#f7f4ec"/>
  <path d="m137.17 318.69h-5.949c-0.77 0-1.499 0.209-2.254 0.285-3.17 0.336-6.167 1.302-8.917 2.921-8.935 5.242-15.152 16.459-15.152 29.562 0 12.271 5.49 22.843 13.513 28.457 2.659 1.863 5.572 3.182 8.704 3.803 1.348 0.269 2.707 0.514 4.113 0.514h300.93c1.402 0 2.766-0.245 4.1-0.514 3.138-0.612 6.047-1.932 8.708-3.795 8.035-5.614 13.525-16.186 13.525-28.465 0-13.111-6.224-24.333-15.172-29.57-2.745-1.611-5.759-2.577-8.917-2.913-0.749-0.076-1.471-0.285-2.244-0.285h-294.99zm10.852 20.094c9.771-4.016 20.732-4.184 33.238 0.981 3.116 1.291 6.286 3.358 9.552 5.414 7.963 4.997 16.511 9.918 26.389 3.342 4.989-3.321 10.95-7.866 17.117-8.884 12.197-2.02 23.253-1.848 33.953 5.249 18.522 12.283 34.648 15.609 53.952 2.638 8.207-5.503 18.189-12.571 28.709-12.034 12.619 0.657 23.736 5.41 34.576 11.729 13.316 7.758 20.782 7.634 31.562-0.425 1.647-1.234 3.358-2.613 5.189-4.216 2.821-2.461 6.147-2.14 8.648-0.558 0.513 0.321 1.025 0.626 1.454 1.042 2.192 2.169 2.914 5.435 0.862 8.248-0.309 0.421-0.51 0.873-0.97 1.274-0.229 0.196-0.441 0.36-0.682 0.564-5.05 4.364-9.843 7.835-14.619 10.352-10.624 5.594-21.203 6.055-34.729-1.812-16.727-9.75-31.446-16.358-49.079-4.513-9.285 6.231-19.376 12.965-30.921 13.738-14.343 0.957-24.79-3.014-36.62-10.864-21.359-14.15-33.867-1.175-53.409 6.516-9.602 3.771-16.068-1.082-22.632-6.02-3.146-2.368-6.319-4.761-9.862-6.231-14.519-6.011-24.686-4.82-33.965 2.225-3.841 2.913-7.552 6.732-11.327 11.605-0.537 0.689-1.138 1.105-1.737 1.494-0.345 0.225-0.683 0.421-1.036 0.562-2.604 0.981-5.354-0.337-7.091-2.685-1.748-2.353-2.331-5.619-0.517-8.601 0.158-0.261 0.196-0.521 0.383-0.781 1.847-2.376 3.753-4.616 5.708-6.677 0.583-0.608 1.196-1.082 1.781-1.667 4.998-4.853 10.343-8.629 16.123-11.005z" fill="#f7f4ec"/>
 </g>
</svg>
