<svg xmlns="http://www.w3.org/2000/svg" width="46" height="60" version="1.1" viewBox="0 0 291.44 501.24">
 <g transform="translate(-96.888 8.0118)" stroke="#fff" stroke-width="16.02" fill="#a08844">
  <path d="m242.61 0c-100.48 0-181.96 81.473-181.96 181.96s151.63 303.26 181.96 303.26c30.326 0 181.96-202.78 181.96-303.26s-81.473-181.96-181.96-181.96z" stroke="#fff" stroke-width="16.02" fill="#a08844"/>
 </g>
 <ellipse cx="145.56" cy="190.43" rx="122.57" ry="121.94" fill="#847138" stroke-width="1.8699"/>
 <path d="m97.467 285.29c-0.74231-0.89389-1.5268-4.7522-1.7432-8.5733l-0.3936-6.9478-11.875-0.65896c-11.438-0.63419-12.01-0.81028-15.56-4.7827-6.4037-7.1675-5.4467-10.964 7.7533-30.758l11.435-17.148-7.9437-0.63473c-11.415-0.91297-11.23-2.4567 2.7978-23.416l11.532-17.229h-9.2948c-16.419 0-16.306-2.4521 1.3112-28.605 20.85-30.951 21.246-30.957 41.847-0.60321 7.8209 11.524 14.252 22.168 14.29 23.655 0.10838 4.1911-2.4679 5.401-12.373 5.8105l-9.1533 0.37843 11.458 17.148c6.7371 10.082 11.318 18.195 11.116 19.688-0.29885 2.2111-1.453 2.5891-8.9009 2.9157l-8.5578 0.37542 11.202 16.772c6.161 9.2247 11.534 18.072 11.939 19.66 1.1602 4.5412-1.3784 11.527-5.0703 13.953-2.3186 1.5238-6.9355 2.4085-14.862 2.8462l-11.498 0.63468-0.39357 6.948c-0.21644 3.8204-1.0009 7.6793-1.7432 8.5738-0.81071 0.97666-4.269 1.626-8.6597 1.626s-7.8491-0.64938-8.6597-1.626zm65.446 0.83004c-0.49336-0.49318-0.89718-9.5419-0.89718-20.108v-19.21l-6.3509-10.058c-3.4932-5.5315-6.3513-10.44-6.3513-10.907 0-0.46682 0.85776-2.9014 1.9056-5.4095 3.1292-7.4896 2.4643-17.215-1.7108-25.03l-3.6163-6.7675 3.6163-6.8743c2.8202-5.3612 3.6158-8.5675 3.6158-14.569 0-7.5694-0.19877-8.0028-12.167-26.498-13.606-21.025-13.948-22.683-5.2723-25.575 4.4491-1.483 5.4464-2.4477 6.1654-5.9639 1.1412-5.5792 4.6135-10.061 11.304-14.59 9.2353-6.2516 19.991-4.6646 28.411 4.1921 2.0192 2.1242 5.4488 4.2318 7.6209 4.6836 5.8496 1.2164 13.846 6.1974 18.55 11.555 6.406 7.2962 8.8332 13.819 8.9108 23.947l0.0692 8.8914 5.6703 3.4411c14.471 8.7809 20.01 29.662 12.229 46.108-3.5512 7.506-10.273 14.724-16.249 17.446-2.5794 1.1755-2.9204 2.0051-2.2624 5.5106 1.0914 5.8191-2.4276 16.755-7.274 22.605-4.7844 5.776-14.986 10.92-21.689 10.938l-4.7252 0.0121-0.35538 16.195-0.35569 16.195-8.9467 0.36802c-4.9208 0.20221-9.3506-0.0328-9.8436-0.52939z" stroke-width="1.2702" fill="#f7f4ec"/>
</svg>