<svg width="36" height="40" version="1.1" viewBox="0 0 12.226 13.394" xmlns="http://www.w3.org/2000/svg">
 <path d="m11.731 5.4963-1.251-0.70422 0.73128-1.2354c0.10786-0.17263 0.1108-0.35304 0.0091-0.54134-0.11005-0.18095-0.26726-0.2697-0.47176-0.26621l-1.4429 0.017019 0.02274-1.4381c0.00471-0.21163-0.085523-0.36721-0.2713-0.46623-0.17859-0.1113-0.35842-0.11188-0.53942-0.00179l-1.2339 0.73869-0.70677-1.258c-0.1005-0.18357-0.25514-0.27298-0.46426-0.26825-0.21063-8.316e-5 -0.36597 0.090404-0.46628 0.2712l-0.70225 1.2583-1.2373-0.73862c-0.17866-0.11123-0.35843-0.11181-0.53938-0.00174-0.18351 0.10049-0.27291 0.25528-0.26816 0.4645l0.017019 1.4429-1.4381-0.02274c-0.21175-0.00488-0.36715 0.085542-0.46623 0.27125-0.11126 0.17861-0.11188 0.3584-0.00174 0.53938l0.73869 1.2341-1.2581 0.70669c-0.17871 0.099203-0.27054 0.25465-0.27534 0.4664 0.005937 0.21397 0.098796 0.36871 0.27837 0.46432l1.2511 0.70419-0.73138 1.2354c-0.10772 0.17254-0.11068 0.353-0.00894 0.54121 0.11004 0.18102 0.26729 0.26972 0.47166 0.2663l1.4428-0.017116-0.022692 1.4381c-0.00491 0.21174 0.085495 0.36708 0.27119 0.46625 0.17865 0.1112 0.3584 0.1117 0.53936 0.0017l1.2341-0.73856c0.32871 0.60036 0.59139 2.7839 1.1731 2.9956 0.64843-0.18686 0.83951-2.4073 1.1685-2.9918l1.2354 0.73148c0.12396 0.07958 0.26014 0.09954 0.40851 0.05979 0.033665-9e-3 0.077784-0.02591 0.13285-0.05089 0.18089-0.11011 0.26953-0.26729 0.26609-0.47163l-0.01709-1.4427 1.438 0.022689c0.21178 0.00469 0.36724-0.085678 0.46625-0.2713 0.11126-0.17875 0.11186-0.3585 0.0018-0.5394l-0.73863-1.2341 1.258-0.70649c0.17891-0.099229 0.27056-0.25476 0.27544-0.46645-6e-3 -0.21394-0.0988-0.36873-0.27859-0.46426z" fill="#005959" stroke="#80ffff" stroke-linecap="round" stroke-linejoin="round" stroke-width=".43214"/>
 <path d="m2.7571 8.2844c0-0.25393 0.010155-0.48815 0.022566-0.52049 0.026595-0.069308 0.1665-0.077941 0.23024-0.014202 0.024535 0.024531 0.044613 0.10819 0.044613 0.18588v0.14128h2.4495l0.011431-0.15422c0.013238-0.17867 0.10093-0.26134 0.20662-0.19477 0.055645 0.035026 0.066554 0.1117 0.075441 0.52958l0.010366 0.48862h-0.29958v-0.44613h-2.4538v0.44613h-0.29743zm3.4783 0.37905c-0.045772-0.06535-0.057875-0.19283-0.057875-0.60941v-0.52673l0.1394-0.017197c0.076689-0.0094 0.17707-0.00331 0.22307 0.013598 0.081338 0.02994 0.083656 0.045278 0.083656 0.55462 0 0.29004-0.017173 0.55598-0.03848 0.59582-0.055987 0.10461-0.27368 0.097947-0.34978-0.010736zm2.2113 0.010705c-0.021169-0.039565-0.038503-0.23374-0.038503-0.43152 0-0.31264 0.00769-0.35669 0.05881-0.33706 0.032345 0.012435 0.099282 0.022584 0.14873 0.022584 0.089623 0 0.089891 0.00132 0.089891 0.40895v0.40895h-0.11022c-0.070919 0-0.12394-0.025644-0.1487-0.071908zm-5.2181-0.84458c-0.057006-0.057015-0.02479-0.2709 0.046559-0.30908 0.044153-0.023641 0.43609-0.038474 1.0153-0.038474 1.0553 0 1.0836 0.00598 1.0627 0.22469l-0.012223 0.12849-1.0435 0.00984c-0.57395 0.0054507-1.055-0.0013893-1.0689-0.015473zm5.1529-0.12126c-0.065881-0.041371-0.141-0.10921-0.16696-0.15077-0.036345-0.058179-0.086547-0.075527-0.21864-0.075527-0.20628 0-0.38554-0.10896-0.48389-0.29407-0.077842-0.14652-0.064169-0.18926 0.0606-0.18926 0.15317 0 0.48155-0.14344 0.64119-0.28008 0.36018-0.30827 0.4682-0.8602 0.25383-1.2968l-0.10798-0.21993 0.08422-0.068197c0.046316-0.03751 0.11659-0.068202 0.15613-0.068202 0.096504 0 0.25446 0.16295 0.25446 0.26252 0 0.062595 0.014178 0.073649 0.06504 0.050712 0.28421-0.12796 0.5411 0.13946 0.43363 0.45136-0.028476 0.082612-0.03545 0.15139-0.016068 0.15805 0.22536 0.07745 0.48405 0.45484 0.48405 0.70626 0 0.32773-0.18063 0.61452-0.47398 0.75257-0.09716 0.045709-0.23083 0.13397-0.29705 0.19613-0.16011 0.1502-0.48307 0.18172-0.66857 0.065236zm-5.1533-0.32544c-0.056547-0.056555-0.023861-0.27052 0.047127-0.30851 0.096933-0.051871 1.9156-0.051871 2.0125 0 0.071328 0.038177 0.093243 0.1601 0.049342 0.27447-0.019817 0.051684-0.14771 0.058818-1.0534 0.058818-0.56696 0-1.0419-0.011163-1.0556-0.024772zm2.9134-0.090937c-0.1493-0.059597-0.33238-0.21514-0.42516-0.36128-0.064346-0.10131-0.13523-0.15338-0.27528-0.20225-0.27115-0.094638-0.56473-0.37609-0.69567-0.66689-0.21896-0.48643-0.10503-1.0602 0.28252-1.4227 0.098528-0.092182 0.23776-0.19555 0.30942-0.2297l0.13029-0.062124-0.077425-0.10877c-0.15289-0.21472-0.081966-0.56188 0.14321-0.7011 0.13189-0.081514 0.39974-0.10804 0.56051-0.055505 0.078657 0.025713 0.083643 0.017044 0.083643-0.14533 0-0.14127 0.019748-0.19241 0.10867-0.28133 0.11825-0.11825 0.24414-0.13734 0.44461-0.067469 0.14279 0.049766 0.22749 0.19933 0.22749 0.40165 0 0.14323 6e-3 0.15076 0.1531 0.19036 0.29081 0.078309 0.58941 0.46421 0.59023 0.7628 4.241e-4 0.053262 0.03947 0.090366 0.13069 0.12337 0.21759 0.078664 0.30766 0.35242 0.18007 0.54716-0.060001 0.091545-0.058102 0.0966 0.091557 0.24474 0.41321 0.40919 0.33648 1.0809-0.15845 1.3869-0.15372 0.095052-0.22173 0.11311-0.4384 0.11639-0.24363 0.0036929-0.25922 0.0092424-0.31203 0.11154-0.14725 0.28519-0.44055 0.46222-0.75968 0.45847-0.11114-0.0013376-0.24337-0.018847-0.29388-0.038997zm-2.3207-1.8927c-0.085172-0.2129-0.079077-0.30474 0.019251-0.28998 0.084095 0.012634 0.22555 0.30313 0.1912 0.39263-0.038697 0.10084-0.15093 0.046074-0.21045-0.10265zm-0.97622-0.018836c-0.02945-0.076738 0.16612-0.35222 0.25005-0.35222 0.11686 0 0.11611 0.06876-0.00263 0.24136-0.11791 0.17136-0.20862 0.21199-0.24743 0.11086zm0.6057-0.42723c-0.2884-0.087457-0.43574-0.41133-0.30347-0.66709 0.24017-0.46445 0.91093-0.32049 0.91147 0.1956 3.921e-4 0.33582-0.29647 0.56598-0.608 0.47147zm0.87113-0.29132c-0.10229-0.029569-0.12751-0.07557-0.081377-0.14846 0.024461-0.038647 0.077418-0.042801 0.23176-0.018233 0.16429 0.026132 0.20005 0.045061 0.20005 0.10585 0 0.058558-0.027152 0.075335-0.13012 0.080463-0.07157 0.00353-0.17071-0.00531-0.22031-0.019616zm-1.7687-0.22385c-0.1162-0.018139-0.14872-0.039509-0.14872-0.09758 0-0.058339 0.028472-0.07675 0.13222-0.085471 0.18125-0.015248 0.34124 0.049641 0.32553 0.13204-0.013847 0.072658-0.090104 0.085226-0.30903 0.051008zm1.357-0.5882c0-0.099208 0.19089-0.3504 0.25665-0.33774 0.096333 0.018557 0.089339 0.13056-0.016848 0.26979-0.10536 0.13814-0.2398 0.17623-0.2398 0.067946zm-0.79424-0.17055c-0.084387-0.22095-0.079603-0.29488 0.018134-0.28017 0.055284 0.0083 0.1 0.065656 0.14918 0.19126 0.0754 0.19257 0.06657 0.24815-0.039385 0.24815-0.044785 0-0.087345-0.052966-0.12793-0.15923z" fill="#80ffff" stroke-width=".037178"/>
</svg>
