<svg width="60" height="60" version="1.1" viewBox="0 0 12.964 12.964" xmlns="http://www.w3.org/2000/svg">
 <circle cx="6.4821" cy="6.4821" r="6.35" fill="#005959" stroke="#80ffff" stroke-width=".26416"></circle>
 <g fill="#80ffff">
  <path d="m9.7457 3.5152h-2.8517l0.39519-1.1868h1.5665c0.16378 0 0.29669-0.13292 0.29669-0.29669 0-0.16378-0.13292-0.29669-0.29669-0.29669h-1.7802c-0.12758 0-0.24091 0.081888-0.28185 0.20293l-0.52573 1.5772h-3.0494c-0.16378 0-0.29669 0.13292-0.29669 0.29669v0.89004c0 1.8632 1.4389 3.3935 3.2635 3.5455v2.3883h-1.1868c-0.16378 0-0.29669 0.13292-0.29669 0.29669 0 0.16378 0.13292 0.29669 0.29669 0.29669h2.9668c0.16378 0 0.29669-0.13292 0.29669-0.29669 0-0.16378-0.13292-0.29669-0.29669-0.29669h-1.1868v-2.3883c1.8246-0.1519 3.2635-1.6822 3.2635-3.5455v-0.89004c0-0.16378-0.13292-0.29669-0.29669-0.29669zm-0.29669 1.1868h-5.9338v-0.59338h5.9338z" stroke-width=".018543" fill="#80ffff"/>
  <path d="m3.1553 2.1759c-0.84487 0-1.5296 0.68477-1.5296 1.5296 0 0.67916 0.44512 1.2477 1.0575 1.4475-0.017336-0.14124-0.037733-0.28247-0.037733-0.42779v-0.76482c0-0.42167 0.34315-0.76482 0.76482-0.76482h1.1809c-0.21058-0.59299-0.77094-1.0198-1.4358-1.0198z" stroke-width=".015934" fill="#80ffff"/>
 </g>
</svg>
