<svg xmlns="http://www.w3.org/2000/svg" width="46" height="60" version="1.1" viewBox="0 0 291.44 501.24">
 <g transform="translate(-96.888 8.0118)" stroke="#fff" stroke-width="16.02" fill="#008080">
  <path d="m242.61 0c-100.48 0-181.96 81.473-181.96 181.96s151.63 303.26 181.96 303.26c30.326 0 181.96-202.78 181.96-303.26s-81.473-181.96-181.96-181.96z" stroke="#80ffff" stroke-width="16.02" fill="#008080"/>
 </g>
 <ellipse cx="146.02" cy="190.42" rx="122.57" ry="121.94" fill="#005959" stroke-width="1.8699"/>
 <path d="m146.02 103.57v14.887h29.775l-7.4437-7.4436 7.4437-7.4437zm0 22.331 52.106 52.106v14.887s1.8163 7.4438 11.165 7.4438 11.165-7.4438 11.165-7.4438v-14.887zl7.4436 52.106v14.887s3.6921 7.4438 14.887 7.4438c11.195 0 14.887-7.4438 14.887-7.4438v-14.887zl-37.218 52.106v14.887s3.6921 7.4438 14.887 7.4438c11.195 0 14.887-7.4438 14.887-7.4438v-14.887zl-74.436 52.106v14.887s1.8163 7.4438 11.165 7.4438 11.165-7.4438 11.165-7.4438v-14.887zm-44.662 74.437s-7.3841 7.4437-18.609 7.4437c-1.6004 0-3.0574-0.18981-4.4198-0.46523l-6.7457 52.571h52.106l7.4436-29.775h29.775l7.4436 29.775h52.106l-6.7459-52.571c-1.3622 0.27542-2.8192 0.46523-4.4196 0.46523-12.93 0-18.609-7.4437-18.609-7.4437s-8.5452 7.4437-22.331 7.4437c-11.888 0-22.331-7.4437-22.331-7.4437s-10.503 7.4437-22.331 7.4437c-13.592 0-22.331-7.4437-22.331-7.4437z" stroke-width="7.4436" fill="#80ffff"/>
</svg>