<svg width="46" height="60" version="1.1" viewBox="0 0 291.44 501.24" xmlns="http://www.w3.org/2000/svg">
 <g transform="translate(-96.888 8.0118)" stroke="#fff" stroke-width="16.02" fill="#008080">
  <path d="m242.61 0c-100.48 0-181.96 81.473-181.96 181.96s151.63 303.26 181.96 303.26c30.326 0 181.96-202.78 181.96-303.26s-81.473-181.96-181.96-181.96z" stroke="#80ffff" stroke-width="16.02" fill="#008080"/>
 </g>
 <ellipse cx="146.02" cy="190.43" rx="122.57" ry="121.94" fill="#005959" stroke-width="1.8699"/>
 <path d="m145.72 90.131c-55.335 0-100.35 45.012-100.35 100.35 0 55.33 45.012 100.34 100.35 100.34 55.33 0 100.34-45.012 100.34-100.34 0-55.341-45.012-100.35-100.34-100.35zm50.609 156.6h-33.755v-45.006h-33.755v45.006h-33.755v-118.14h33.755v45.006h33.755v-45.006h33.755z" stroke-width="5.6258" fill="#80ffff"/>
</svg>
