<svg width="36" height="40" version="1.1" viewBox="0 0 12.226 13.394" xmlns="http://www.w3.org/2000/svg">
 <path d="m11.731 5.4963-1.251-0.70422 0.73128-1.2354c0.10786-0.17263 0.1108-0.35304 0.0091-0.54134-0.11005-0.18095-0.26726-0.2697-0.47176-0.26621l-1.4429 0.017019 0.02274-1.4381c0.00471-0.21163-0.085523-0.36721-0.2713-0.46623-0.17859-0.1113-0.35842-0.11188-0.53942-0.00179l-1.2339 0.73869-0.70677-1.258c-0.1005-0.18357-0.25514-0.27298-0.46426-0.26825-0.21063-8.316e-5 -0.36597 0.090404-0.46628 0.2712l-0.70225 1.2583-1.2373-0.73862c-0.17866-0.11123-0.35843-0.11181-0.53938-0.00174-0.18351 0.10049-0.27291 0.25528-0.26816 0.4645l0.017019 1.4429-1.4381-0.02274c-0.21175-0.00488-0.36715 0.085542-0.46623 0.27125-0.11126 0.17861-0.11188 0.3584-0.00174 0.53938l0.73869 1.2341-1.2581 0.70669c-0.17871 0.099203-0.27054 0.25465-0.27534 0.4664 0.005937 0.21397 0.098796 0.36871 0.27837 0.46432l1.2511 0.70419-0.73138 1.2354c-0.10772 0.17254-0.11068 0.353-0.00894 0.54121 0.11004 0.18102 0.26729 0.26972 0.47166 0.2663l1.4428-0.017116-0.022692 1.4381c-0.00491 0.21174 0.085495 0.36708 0.27119 0.46625 0.17865 0.1112 0.3584 0.1117 0.53936 0.0017l1.2341-0.73856c0.32871 0.60036 0.59139 2.7839 1.1731 2.9956 0.64843-0.18686 0.83951-2.4073 1.1685-2.9918l1.2354 0.73148c0.12396 0.07958 0.26014 0.09954 0.40851 0.05979 0.033665-9e-3 0.077784-0.02591 0.13285-0.05089 0.18089-0.11011 0.26953-0.26729 0.26609-0.47163l-0.01709-1.4427 1.438 0.022689c0.21178 0.00469 0.36724-0.085678 0.46625-0.2713 0.11126-0.17875 0.11186-0.3585 0.0018-0.5394l-0.73863-1.2341 1.258-0.70649c0.17891-0.099229 0.27056-0.25476 0.27544-0.46645-6e-3 -0.21394-0.0988-0.36873-0.27859-0.46426z" fill="#847138" stroke="#fff" stroke-linecap="round" stroke-linejoin="round" stroke-width=".43214"/>
 <g transform="matrix(.035874 0 0 .035874 5.3243 -5.5285)" fill="#f7f4ec" stroke-width=".33997">
  <path d="m95.775 344.49-7.4849-8.529-8.5292-28.199c-0.69616-2.2627-2.7849-3.6553-5.0477-3.6553h-84.768c-2.2628 0-4.3516 1.3926-5.0479 3.6553l-8.3551 27.85-8.8773 8.5294c-1.0444 1.0443-1.5666 2.4366-1.5666 3.8292v35.51c0 2.9588 2.2629 5.222 5.222 5.222h2.785v12.359c0 2.9592 2.2629 5.2219 5.2219 5.2219h22.803c2.9591 0 5.222-2.2628 5.222-5.2219v-12.359h48.215v12.359c0 2.9592 2.2628 5.2219 5.222 5.2219h22.976c2.959 0 5.222-2.2628 5.222-5.2219v-12.359h2.7851c2.959 0 5.2219-2.2632 5.2219-5.222v-35.51c0-1.2181-0.34819-2.4369-1.2185-3.4814zm-93.298 24.543c0 2.9589-2.2629 5.222-5.222 5.222h-10.966c-2.9591 0-5.2219-2.2631-5.2219-5.222v-9.7477c0-2.9595 2.2629-5.222 5.2219-5.222h10.966c2.9591 0 5.222 2.2626 5.222 5.222zm43.516-2.2631h-29.069v-10.444h29.243zm-57.615-34.289 5.396-17.929h77.112l5.396 17.929h-87.903zm93.298 36.554c0 2.9588-2.2629 5.2215-5.222 5.2215h-10.792c-2.9591 0-5.2219-2.2627-5.2219-5.2215v-9.7479c0-2.9591 2.2628-5.222 5.2219-5.222h10.966c2.959 0 5.2219 2.2629 5.2219 5.222z" fill="#f7f4ec"/>
  <path d="m35.723 251.01v-9.2254c0-2.9593-2.2629-5.2219-5.2219-5.2219h-78.329c-2.9591 0-5.222 2.2626-5.222 5.2219v165.36h10.444v-160.14h67.885v4.0034c-12.533 1.2184-22.106 11.662-22.106 24.369 0 2.9591 2.2629 5.2219 5.222 5.2219h44.213c2.959 0 5.2219-2.2628 5.2219-5.2219 0-12.707-9.5735-23.151-22.106-24.369z" fill="#f7f4ec"/>
  <rect x="25.279" y="286.52" width="10.444" height="10.792"></rect>
  <rect x="46.167" y="286.52" width="10.444" height="10.792"></rect>
  <rect x="4.3909" y="286.52" width="10.444" height="10.792"></rect>
 </g>
</svg>
