<svg xmlns="http://www.w3.org/2000/svg" width="46" height="60" version="1.1" viewBox="0 0 291.44 501.24">
 <g transform="translate(-96.888 8.0118)" stroke="#fff" stroke-width="16.02" fill="#008080">
  <path d="m242.61 0c-100.48 0-181.96 81.473-181.96 181.96s151.63 303.26 181.96 303.26c30.326 0 181.96-202.78 181.96-303.26s-81.473-181.96-181.96-181.96z" stroke="#80ffff" stroke-width="16.02" fill="#008080"/>
 </g>
 <ellipse cx="145.56" cy="190.43" rx="122.57" ry="121.94" fill="#005959" stroke-width="1.8699"/>
 <g transform="matrix(.37018 0 0 .37018 96.568 108.55)" fill="#80ffff">
  <path d="m267.34 326.16h-75.008v-30.004h-120.01v30.004h-75.008v151.01h270.02zm-90.008 90.008h-90.008v-30.004h90.008z" fill="#80ffff"/>
  <path d="m227.76 132.05-40.535-10.152c12.715-13.684 20.113-31.805 20.113-50.762v-26.793c0-41.113-31.445-79.172-74.715-79.172-41.465 0-75.301 34.281-75.301 75.961v30.004c0 18.957 7.3984 37.078 20.117 50.762l-40.539 10.137c-41.297 10.316-40.254 46.527-39.582 75.637 0.10156 4.3945 0 28.48 0 28.48h38.793l30.004 30.004h132.43l30-30.004h38.793s-0.10156-24.086 0-28.48c0.67578-29.109 1.7148-65.324-39.582-75.621z" fill="#80ffff"/>
 </g>
</svg>