<svg width="36" height="40" version="1.1" viewBox="0 0 12.226 13.394" xmlns="http://www.w3.org/2000/svg">
 <path d="m11.731 5.4963-1.251-0.70422 0.73128-1.2354c0.10786-0.17263 0.1108-0.35304 0.0091-0.54134-0.11005-0.18095-0.26726-0.2697-0.47176-0.26621l-1.4429 0.017019 0.02274-1.4381c0.00471-0.21163-0.085523-0.36721-0.2713-0.46623-0.17859-0.1113-0.35842-0.11188-0.53942-0.00179l-1.2339 0.73869-0.70677-1.258c-0.1005-0.18357-0.25514-0.27298-0.46426-0.26825-0.21063-8.316e-5 -0.36597 0.090404-0.46628 0.2712l-0.70225 1.2583-1.2373-0.73862c-0.17866-0.11123-0.35843-0.11181-0.53938-0.00174-0.18351 0.10049-0.27291 0.25528-0.26816 0.4645l0.017019 1.4429-1.4381-0.02274c-0.21175-0.00488-0.36715 0.085542-0.46623 0.27125-0.11126 0.17861-0.11188 0.3584-0.00174 0.53938l0.73869 1.2341-1.2581 0.70669c-0.17871 0.099203-0.27054 0.25465-0.27534 0.4664 0.005937 0.21397 0.098796 0.36871 0.27837 0.46432l1.2511 0.70419-0.73138 1.2354c-0.10772 0.17254-0.11068 0.353-0.00894 0.54121 0.11004 0.18102 0.26729 0.26972 0.47166 0.2663l1.4428-0.017116-0.022692 1.4381c-0.00491 0.21174 0.085495 0.36708 0.27119 0.46625 0.17865 0.1112 0.3584 0.1117 0.53936 0.0017l1.2341-0.73856c0.32871 0.60036 0.59139 2.7839 1.1731 2.9956 0.64843-0.18686 0.83951-2.4073 1.1685-2.9918l1.2354 0.73148c0.12396 0.07958 0.26014 0.09954 0.40851 0.05979 0.033665-9e-3 0.077784-0.02591 0.13285-0.05089 0.18089-0.11011 0.26953-0.26729 0.26609-0.47163l-0.01709-1.4427 1.438 0.022689c0.21178 0.00469 0.36724-0.085678 0.46625-0.2713 0.11126-0.17875 0.11186-0.3585 0.0018-0.5394l-0.73863-1.2341 1.258-0.70649c0.17891-0.099229 0.27056-0.25476 0.27544-0.46645-6e-3 -0.21394-0.0988-0.36873-0.27859-0.46426z" fill="#847138" stroke="#fff" stroke-linecap="round" stroke-linejoin="round" stroke-width=".43214"/>
 <g transform="matrix(.024642 0 0 .024467 2.4532 2.2148)" fill="#f7f4ec">
  <path d="m45.432 35.049h-0.025c-2.809 0-5.451 1.095-7.446 3.085-2.017 2.012-3.128 4.691-3.128 7.543v159.36c0 5.844 4.773 10.61 10.641 10.625 24.738 0.059 66.184 5.215 94.776 35.136v-166.78c0-1.981-0.506-3.842-1.461-5.382-23.467-37.792-68.563-43.534-93.357-43.592z" fill="#f7f4ec"/>
  <path d="m262.17 205.04v-159.37c0-2.852-1.111-5.531-3.128-7.543-1.995-1.99-4.639-3.085-7.445-3.085h-0.026c-24.793 0.059-69.889 5.801-93.357 43.593-0.955 1.54-1.46 3.401-1.46 5.382v166.78c28.592-29.921 70.038-35.077 94.776-35.136 5.867-0.015 10.64-4.781 10.64-10.624z" fill="#f7f4ec"/>
  <path d="m286.37 71.801h-7.706v133.24c0 14.921-12.157 27.088-27.101 27.125-20.983 0.05-55.581 4.153-80.084 27.344 42.378-10.376 87.052-3.631 112.51 2.171 3.179 0.724 6.464-0.024 9.011-2.054 2.538-2.025 3.994-5.052 3.994-8.301v-168.9c1e-3 -5.859-4.767-10.626-10.626-10.626z" fill="#f7f4ec"/>
  <path d="m18.332 205.04v-133.24h-7.706c-5.858 0-10.626 4.767-10.626 10.626v168.9c0 3.25 1.456 6.276 3.994 8.301 2.545 2.029 5.827 2.78 9.011 2.054 25.46-5.803 70.135-12.547 112.51-2.171-24.502-23.19-59.1-27.292-80.083-27.342-14.943-0.036-27.101-12.203-27.101-27.124z" fill="#f7f4ec"/>
 </g>
</svg>
