<svg width="36" height="40" version="1.1" viewBox="0 0 12.226 13.394" xmlns="http://www.w3.org/2000/svg">
 <path d="m11.731 5.4963-1.251-0.70422 0.73128-1.2354c0.10786-0.17263 0.1108-0.35304 0.0091-0.54134-0.11005-0.18095-0.26726-0.2697-0.47176-0.26621l-1.4429 0.017019 0.02274-1.4381c0.00471-0.21163-0.085523-0.36721-0.2713-0.46623-0.17859-0.1113-0.35842-0.11188-0.53942-0.00179l-1.2339 0.73869-0.70677-1.258c-0.1005-0.18357-0.25514-0.27298-0.46426-0.26825-0.21063-8.316e-5 -0.36597 0.090404-0.46628 0.2712l-0.70225 1.2583-1.2373-0.73862c-0.17866-0.11123-0.35843-0.11181-0.53938-0.00174-0.18351 0.10049-0.27291 0.25528-0.26816 0.4645l0.017019 1.4429-1.4381-0.02274c-0.21175-0.00488-0.36715 0.085542-0.46623 0.27125-0.11126 0.17861-0.11188 0.3584-0.00174 0.53938l0.73869 1.2341-1.2581 0.70669c-0.17871 0.099203-0.27054 0.25465-0.27534 0.4664 0.005937 0.21397 0.098796 0.36871 0.27837 0.46432l1.2511 0.70419-0.73138 1.2354c-0.10772 0.17254-0.11068 0.353-0.00894 0.54121 0.11004 0.18102 0.26729 0.26972 0.47166 0.2663l1.4428-0.017116-0.022692 1.4381c-0.00491 0.21174 0.085495 0.36708 0.27119 0.46625 0.17865 0.1112 0.3584 0.1117 0.53936 0.0017l1.2341-0.73856c0.32871 0.60036 0.59139 2.7839 1.1731 2.9956 0.64843-0.18686 0.83951-2.4073 1.1685-2.9918l1.2354 0.73148c0.12396 0.07958 0.26014 0.09954 0.40851 0.05979 0.033665-9e-3 0.077784-0.02591 0.13285-0.05089 0.18089-0.11011 0.26953-0.26729 0.26609-0.47163l-0.01709-1.4427 1.438 0.022689c0.21178 0.00469 0.36724-0.085678 0.46625-0.2713 0.11126-0.17875 0.11186-0.3585 0.0018-0.5394l-0.73863-1.2341 1.258-0.70649c0.17891-0.099229 0.27056-0.25476 0.27544-0.46645-6e-3 -0.21394-0.0988-0.36873-0.27859-0.46426z" fill="#005959" stroke="#80ffff" stroke-linecap="round" stroke-linejoin="round" stroke-width=".43214"/>
 <g transform="matrix(.012332 0 0 .011528 3.1206 3.0172)" fill="#80ffff">
  <path d="m460.96 176.4c13.33-10.011 24.256-4.532 24.256 12.139v272.94c0 16.671-10.926 22.15-24.256 12.14l-72.792-54.609c-13.324-10.007-24.255-31.839-24.255-48.51v-90.976c0-16.676 10.931-38.501 24.255-48.512l72.792-54.607zm-400.3-139.49c-33.493 0-60.651 27.156-60.651 60.651 0 33.493 27.158 60.653 60.651 60.653 33.498 0 60.653-27.16 60.653-60.653 0-33.495-27.155-60.651-60.653-60.651zm181.96-30.327c-41.875 0-75.812 33.939-75.812 75.814s33.937 75.817 75.812 75.817c41.873 0 75.816-33.941 75.816-75.817s-33.943-75.814-75.816-75.814zm-121.3 242.61h212.28v181.96c0 16.764-13.566 30.326-30.331 30.326h-272.93c-16.765 1e-3 -30.327-13.562-30.327-30.326v-212.28c0-16.764 13.564-30.327 30.327-30.327h272.93c16.765 0 30.331 13.567 30.331 30.327h-212.28v30.327zm0 121.3c0-16.76-13.565-30.322-30.327-30.322s-30.327 13.562-30.327 30.322c0 16.764 13.565 30.322 30.327 30.322s30.327-13.558 30.327-30.322z" fill="#80ffff"/>
 </g>
</svg>
