<svg xmlns="http://www.w3.org/2000/svg" width="46" height="60" version="1.1" viewBox="0 0 291.44 501.24">
 <g transform="translate(-96.888 8.0118)" stroke="#fff" stroke-width="16.02" fill="#a08844">
  <path d="m242.61 0c-100.48 0-181.96 81.473-181.96 181.96s151.63 303.26 181.96 303.26c30.326 0 181.96-202.78 181.96-303.26s-81.473-181.96-181.96-181.96z" stroke="#fff" stroke-width="16.02" fill="#a08844"/>
 </g>
 <ellipse cx="146.02" cy="190.43" rx="122.57" ry="121.94" fill="#847138" stroke-width="1.8699"/>
 <path d="m139.16 196.55c-1.8257-1.8259-4.8024-1.8259-6.6284 0-1.8264 1.8265-1.8264 4.8017 0 6.6284 1.8314 1.831 4.7977 1.831 6.6284 0 1.8268-1.8268 1.8268-4.802 0-6.6284z" stroke-width=".3125" fill="#f7f4ec"/>
 <g transform="matrix(.3125 0 0 .3125 65.568 110.15)" fill="#f7f4ec">
  <path d="m277.92 191.64c-40.944-40.944-107.56-40.93-148.49 0-40.942 40.942-40.942 107.55 0 148.49 39.639 39.639 108.79 39.668 148.49 0 41.054-41.054 41.043-107.45 0-148.49zm-21.21 127.28c-17.549 17.549-46.084 17.549-63.633 0-8.159-8.159-12.129-18.743-12.7-29.443-11.226-0.518-21.744-4.986-29.736-12.979-17.532-17.559-17.605-46.028 0.014-63.647 16.948-16.948 46.597-17.007 63.633 0 7.993 7.993 12.46 18.51 12.979 29.736 10.701 0.571 21.284 4.541 29.443 12.7 17.549 17.549 17.549 46.084 0 63.633z" fill="#f7f4ec"/>
 </g>
 <path d="m125.9 183.3v-0.01c-1.8487-1.8398-4.8066-1.8265-6.6237 0-1.8284 1.8191-1.8461 4.7773-5e-3 6.6284 1.7812 1.776 4.8528 1.776 6.6287 0 1.8396-1.8486 1.8264-4.8064 0-6.6238z" stroke-width=".3125" fill="#f7f4ec"/>
 <g transform="matrix(.3125 0 0 .3125 66.018 110.43)" fill="#f7f4ec">
  <path d="m383.99 128.01c-87.715-87.715-230.48-87.715-318.19 0-87.729 87.729-87.729 230.46 0 318.19 87.742 87.742 230.47 87.722 318.19 0 87.729-87.729 87.729-230.46 0-318.19zm-84.858 233.33c-52.747 52.778-138.17 52.775-190.91 0-52.632-52.631-52.632-138.28 0-190.91 52.676-52.646 138.3-52.617 190.91 0 52.778 52.747 52.775 138.17 0 190.91z" fill="#f7f4ec"/>
  <path d="m507.61 4.395c-5.859-5.859-15.352-5.86-21.211 0l-81.193 81.191c-5.859 5.859-5.859 15.352 0 21.211s15.352 5.859 21.211 0l81.193-81.191c5.859-5.859 5.859-15.352 0-21.211z" fill="#f7f4ec"/>
  <path d="m505.5 91.357c-5.859-5.859-15.351-5.859-21.211 0l-41.411 41.396c-5.859 5.859-5.859 15.352 0 21.211s15.352 5.859 21.211 0l41.411-41.396c5.859-5.859 5.859-15.352 0-21.211z" fill="#f7f4ec"/>
  <path d="m420.64 6.499c-5.859-5.859-15.352-5.859-21.211 0l-41.367 41.367c-5.859 5.859-5.859 15.352 0 21.211s15.351 5.859 21.211 0l41.367-41.367c5.859-5.859 5.859-15.352 0-21.211z" fill="#f7f4ec"/>
 </g>
</svg>