<svg width="36" height="40" version="1.1" viewBox="0 0 12.226 13.394" xmlns="http://www.w3.org/2000/svg">
 <path d="m11.731 5.4963-1.251-0.70422 0.73128-1.2354c0.10786-0.17263 0.1108-0.35304 0.0091-0.54134-0.11005-0.18095-0.26726-0.2697-0.47176-0.26621l-1.4429 0.017019 0.02274-1.4381c0.00471-0.21163-0.085523-0.36721-0.2713-0.46623-0.17859-0.1113-0.35842-0.11188-0.53942-0.00179l-1.2339 0.73869-0.70677-1.258c-0.1005-0.18357-0.25514-0.27298-0.46426-0.26825-0.21063-8.316e-5 -0.36597 0.090404-0.46628 0.2712l-0.70225 1.2583-1.2373-0.73862c-0.17866-0.11123-0.35843-0.11181-0.53938-0.00174-0.18351 0.10049-0.27291 0.25528-0.26816 0.4645l0.017019 1.4429-1.4381-0.02274c-0.21175-0.00488-0.36715 0.085542-0.46623 0.27125-0.11126 0.17861-0.11188 0.3584-0.00174 0.53938l0.73869 1.2341-1.2581 0.70669c-0.17871 0.099203-0.27054 0.25465-0.27534 0.4664 0.005937 0.21397 0.098796 0.36871 0.27837 0.46432l1.2511 0.70419-0.73138 1.2354c-0.10772 0.17254-0.11068 0.353-0.00894 0.54121 0.11004 0.18102 0.26729 0.26972 0.47166 0.2663l1.4428-0.017116-0.022692 1.4381c-0.00491 0.21174 0.085495 0.36708 0.27119 0.46625 0.17865 0.1112 0.3584 0.1117 0.53936 0.0017l1.2341-0.73856c0.32871 0.60036 0.59139 2.7839 1.1731 2.9956 0.64843-0.18686 0.83951-2.4073 1.1685-2.9918l1.2354 0.73148c0.12396 0.07958 0.26014 0.09954 0.40851 0.05979 0.033665-9e-3 0.077784-0.02591 0.13285-0.05089 0.18089-0.11011 0.26953-0.26729 0.26609-0.47163l-0.01709-1.4427 1.438 0.022689c0.21178 0.00469 0.36724-0.085678 0.46625-0.2713 0.11126-0.17875 0.11186-0.3585 0.0018-0.5394l-0.73863-1.2341 1.258-0.70649c0.17891-0.099229 0.27056-0.25476 0.27544-0.46645-6e-3 -0.21394-0.0988-0.36873-0.27859-0.46426z" fill="#005959" fill-opacity=".94118" stroke="#80ffff" stroke-linecap="round" stroke-linejoin="round" stroke-width=".43214"/>
 <g transform="matrix(.012764 0 0 .012764 2.8473 2.5827)" fill="#80ffff">
  <path d="m509.05 333.75c-1.711-1.711-3.901-2.566-6.563-2.566h-100.5c-4.186 0-7.039 1.902-8.565 5.711-1.523 3.617-0.855 6.951 1.995 9.996l28.551 28.548c-12.751 17.323-30.785 31.929-54.101 43.828-23.315 11.898-49.152 19.745-77.516 23.555v-184.73h54.816c4.948 0 9.236-1.812 12.854-5.424 3.613-3.612 5.424-7.898 5.424-12.847v-36.547c0-4.947-1.811-9.229-5.424-12.847-3.617-3.616-7.905-5.424-12.854-5.424h-54.816v-46.536c11.04-6.473 19.89-15.275 26.553-26.409 6.663-11.138 9.996-23.363 9.996-36.691 0-20.174-7.139-37.401-21.412-51.673-14.275-14.277-31.498-21.416-51.675-21.416s-37.404 7.139-51.682 21.416c-14.272 14.272-21.411 31.499-21.411 51.673 0 13.328 3.333 25.553 9.994 36.691 6.662 11.134 15.513 19.936 26.551 26.409v46.536h-54.816c-4.952 0-9.235 1.809-12.85 5.424-3.618 3.617-5.426 7.9-5.426 12.847v36.547c0 4.949 1.809 9.235 5.426 12.847 3.619 3.616 7.902 5.424 12.85 5.424h54.816v184.73c-28.359-3.812-54.2-11.663-77.514-23.559-23.315-11.902-41.352-26.508-54.103-43.831l28.549-28.541c2.853-3.053 3.521-6.379 1.997-9.999-1.521-3.812-4.377-5.715-8.564-5.715h-100.5c-2.666 0-4.856 0.855-6.567 2.573-1.709 1.711-2.568 3.901-2.568 6.57v100.5c0 4.182 1.903 7.043 5.708 8.562 1.525 0.38 2.667 0.568 3.427 0.568 2.667 0 4.854-0.856 6.567-2.561l26.552-26.556c22.648 27.217 52.96 48.772 90.932 64.665s78.847 23.846 122.63 23.846c43.776 0 84.651-7.953 122.62-23.846 37.973-15.893 68.286-37.445 90.934-64.665l26.556 26.556c1.903 1.704 4.086 2.561 6.564 2.561 0.76 0 1.902-0.192 3.429-0.568 3.806-1.52 5.708-4.381 5.708-8.562v-100.5c0-2.669-0.859-4.859-2.573-6.57zm-240.39-245.54c-3.613 3.617-7.895 5.43-12.847 5.43s-9.232-1.812-12.85-5.43c-3.617-3.612-5.424-7.898-5.424-12.847 0-4.947 1.807-9.229 5.424-12.847 3.621-3.616 7.902-5.424 12.85-5.424s9.233 1.809 12.847 5.424c3.614 3.617 5.428 7.9 5.428 12.847-1e-3 4.948-1.814 9.235-5.428 12.847z" fill="#80ffff"/>
 </g>
</svg>
