<svg xmlns="http://www.w3.org/2000/svg" width="46" height="60" version="1.1" viewBox="0 0 291.44 501.24">
 <g transform="translate(-96.888 8.0118)" stroke="#fff" stroke-width="16.02" fill="#a08844">
  <path d="m242.61 0c-100.48 0-181.96 81.473-181.96 181.96s151.63 303.26 181.96 303.26c30.326 0 181.96-202.78 181.96-303.26s-81.473-181.96-181.96-181.96z" stroke="#fff" stroke-width="16.02" fill="#a08844"/>
 </g>
 <ellipse cx="145.56" cy="190.43" rx="122.57" ry="121.94" fill="#847138" stroke-width="1.8699"/>
 <g transform="matrix(2.3893 0 0 2.3893 50.541 95.414)" fill="#f7f4ec">
  <path d="m79.536 61.441h-79.536l3.946-6.846 12.285-21.284c2.175-3.76 5.722-3.76 7.889 0 0 0 2.853 4.942 3.197 5.52 1.634-2.825 10.341-17.916 10.341-17.916 2.18-3.76 5.725-3.76 7.894 0l17.301 29.968c0.891-1.548 1.771-3.064 2.443-4.256 1.574-2.713 4.127-2.713 5.707 0 1.563 2.724 4.127 7.166 5.701 9.869z" fill="#f7f4ec"/>
 </g>
</svg>