<svg xmlns="http://www.w3.org/2000/svg" width="46" height="60" version="1.1" viewBox="0 0 291.44 501.24">
 <g transform="translate(-96.888 8.0118)" stroke="#fff" stroke-width="16.02" fill="#008080">
  <path d="m242.61 0c-100.48 0-181.96 81.473-181.96 181.96s151.63 303.26 181.96 303.26c30.326 0 181.96-202.78 181.96-303.26s-81.473-181.96-181.96-181.96z" stroke="#80ffff" stroke-width="16.02" fill="#008080"/>
 </g>
 <ellipse cx="146.02" cy="190.43" rx="122.57" ry="121.94" fill="#005959" stroke-width="1.8699"/>
 <g transform="translate(124.05 -131.43)" stroke-width=".33997" fill="#80ffff">
  <path d="m95.775 344.49-7.4849-8.529-8.5292-28.199c-0.69616-2.2627-2.7849-3.6553-5.0477-3.6553h-84.768c-2.2628 0-4.3516 1.3926-5.0479 3.6553l-8.3551 27.85-8.8773 8.5294c-1.0444 1.0443-1.5666 2.4366-1.5666 3.8292v35.51c0 2.9588 2.2629 5.222 5.222 5.222h2.785v12.359c0 2.9592 2.2629 5.2219 5.2219 5.2219h22.803c2.9591 0 5.222-2.2628 5.222-5.2219v-12.359h48.215v12.359c0 2.9592 2.2628 5.2219 5.222 5.2219h22.976c2.959 0 5.222-2.2628 5.222-5.2219v-12.359h2.7851c2.959 0 5.2219-2.2632 5.2219-5.222v-35.51c0-1.2181-0.34819-2.4369-1.2185-3.4814zm-93.298 24.543c0 2.9589-2.2629 5.222-5.222 5.222h-10.966c-2.9591 0-5.2219-2.2631-5.2219-5.222v-9.7477c0-2.9595 2.2629-5.222 5.2219-5.222h10.966c2.9591 0 5.222 2.2626 5.222 5.222zm43.516-2.2631h-29.069v-10.444h29.243zm-57.615-34.289 5.396-17.929h77.112l5.396 17.929h-87.903zm93.298 36.554c0 2.9588-2.2629 5.2215-5.222 5.2215h-10.792c-2.9591 0-5.2219-2.2627-5.2219-5.2215v-9.7479c0-2.9591 2.2628-5.222 5.2219-5.222h10.966c2.959 0 5.2219 2.2629 5.2219 5.222z" fill="#80ffff"/>
  <path d="m35.723 251.01v-9.2254c0-2.9593-2.2629-5.2219-5.2219-5.2219h-78.329c-2.9591 0-5.222 2.2626-5.222 5.2219v165.36h10.444v-160.14h67.885v4.0034c-12.533 1.2184-22.106 11.662-22.106 24.369 0 2.9591 2.2629 5.2219 5.222 5.2219h44.213c2.959 0 5.2219-2.2628 5.2219-5.2219 0-12.707-9.5735-23.151-22.106-24.369z" fill="#80ffff"/>
  <rect x="25.279" y="286.52" width="10.444" height="10.792"></rect>
  <rect x="46.167" y="286.52" width="10.444" height="10.792"></rect>
  <rect x="4.3909" y="286.52" width="10.444" height="10.792"></rect>
 </g>
</svg>