<svg xmlns="http://www.w3.org/2000/svg" width="46" height="60" version="1.1" viewBox="0 0 291.44 501.24">
 <g transform="translate(-96.888 8.0118)" stroke="#fff" stroke-width="16.02" fill="#008080">
  <path d="m242.61 0c-100.48 0-181.96 81.473-181.96 181.96s151.63 303.26 181.96 303.26c30.326 0 181.96-202.78 181.96-303.26s-81.473-181.96-181.96-181.96z" stroke="#80ffff" stroke-width="16.02" fill="#008080"/>
 </g>
 <ellipse cx="146.02" cy="190.43" rx="122.57" ry="121.94" fill="#005959" stroke-width="1.8699"/>
 <path d="m113.5 101.87v43.589c0 2.214-2.1678 4.382-4.3818 4.382s-4.3819-2.1679-4.3819-4.382v-42.897c-7.3803 0.73806-11.07 1.6145-11.07 1.6145s-2.9982 33.81-2.9982 53.736c0 22.14 22.14 22.278 22.14 31.135 0 7.3804-7.3803 53.044-7.3803 75.186 0 8.1183 6.642 14.76 14.761 14.76 8.1181 0 14.76-6.6425 14.76-14.76 0-22.14-7.3802-67.988-7.3802-76.105 0-8.1181 22.14-8.0717 22.14-30.212 0-12.546-2.3062-53.736-2.3062-53.736s-3.6439-0.87638-11.762-1.6143v43.589c0 2.214-2.1679 4.3819-4.3819 4.3819-2.9518 0-4.3819-2.1678-4.3819-4.3819v-44.28h-6.688zm87.868 0c-14.76 0-36.901 44.28-36.901 84.874 0 0 18.45 13.284 18.45 25.83 0 22.878-11.07 35.424-11.07 51.661 0 8.1179 6.642 14.76 14.76 14.76 8.1181 0 14.76-6.6423 14.76-14.76z" stroke-width="7.3803" fill="#80ffff"/>
</svg>