<svg xmlns="http://www.w3.org/2000/svg" width="46" height="60" version="1.1" viewBox="0 0 291.44 501.24">
 <g transform="translate(-96.892 8.01)" stroke="#fff" stroke-width="16.02" fill="#a08844">
  <path d="m242.61 0c-100.48 0-181.96 81.473-181.96 181.96s151.63 303.26 181.96 303.26c30.326 0 181.96-202.78 181.96-303.26s-81.473-181.96-181.96-181.96z" stroke="#fff" stroke-width="16.02" fill="#a08844"/>
 </g>
 <ellipse cx="145.72" cy="190.43" rx="122.57" ry="121.94" fill="#847138" stroke-width="1.8699"/>
 <path d="m231.84 162.89h-13.204c-1.0062 0-1.9727 0.40141-2.6987 1.1198l-2.819 2.7882c-4.7506-11.352-11.567-22.577-20.774-34.199-4.9775-6.279-12.337-9.8803-20.195-9.8803h-52.868c-7.8582 0-15.219 3.6014-20.193 9.8803-9.4964 11.987-16.177 22.943-20.817 34.158l-2.7767-2.7469c-0.72569-0.71858-1.6928-1.1198-2.6986-1.1198h-13.204c-2.1542 0-3.9001 1.8028-3.9001 4.0266v9.3217c0 2.1255 1.6006 3.885 3.6548 4.019l13.572 0.88254c-2.0506 6.1875-3.652 15.407-3.652 28.41 0 11.283 2.1823 18.698 5.9803 23.498v21.721c0 1.8622 1.4624 3.3721 3.2669 3.3721h15.023c1.8044 0 3.2669-1.5099 3.2669-3.3721v-13.488h97.824v13.488c0 1.8622 1.4629 3.3721 3.2664 3.3721h15.023c1.8045 0 3.2673-1.5099 3.2673-3.3721v-21.721c3.7972-4.8004 5.9804-12.215 5.9804-23.498 0-13.003-1.6014-22.223-3.652-28.41l13.572-0.88254c2.0537-0.13422 3.6544-1.8934 3.6544-4.019v-9.3217c0-2.2238-1.7453-4.0266-3.8995-4.0266zm-121.6-20.876c2.2288-2.8132 5.5262-4.4276 9.0462-4.4276h52.868c3.5193 0 6.8184 1.6144 9.0468 4.4276 6.4411 8.13 11.528 15.911 15.459 23.66l-101.97 0.0166c3.8448-7.5779 8.9604-15.365 15.549-23.68zm-11.112 82.771c-7.477 0-13.539-2.5216-13.539-8.6388 0-6.1169 2.1995-11.078 9.6773-11.078 7.4778 0 17.4 4.9608 17.4 11.078 0 6.1168-6.0616 8.6388-13.538 8.6388zm60.783-1.2744h-28.382c-4.279 0-7.7599-3.5943-7.7599-8.0118 0-1.2392 0.97315-2.2442 2.1738-2.2442h39.555c1.2007 0 2.173 1.0051 2.173 2.2442 0 4.4179-3.4807 8.0118-7.7596 8.0118zm32.401 1.2744c-7.4782 0-13.539-2.5216-13.539-8.6388 0-6.1169 9.9237-11.078 17.4-11.078 7.4773 0 9.6764 4.9608 9.6764 11.078 0 6.1168-6.0603 8.6388-13.538 8.6388z" stroke-width=".4237" fill="#f7f4ec"/>
</svg>