<svg xmlns="http://www.w3.org/2000/svg" width="46" height="60" version="1.1" viewBox="0 0 291.44 501.24">
 <g transform="translate(-96.888 8.0118)" stroke="#fff" stroke-width="16.02" fill="#a08844">
  <path d="m242.61 0c-100.48 0-181.96 81.473-181.96 181.96s151.63 303.26 181.96 303.26c30.326 0 181.96-202.78 181.96-303.26s-81.473-181.96-181.96-181.96z" stroke="#fff" stroke-width="16.02" fill="#a08844"/>
 </g>
 <ellipse cx="145.56" cy="190.43" rx="122.57" ry="121.94" fill="#847138" stroke-width="1.8699"/>
 <g transform="matrix(2.6724 0 0 2.6724 18.425 48.847)" fill="#f7f4ec">
  <polygon points="57.82 69.736 57.82 73.386 83.178 73.386 83.178 69.736 78.785 69.736 61.207 24.505 60.608 24.504 47.879 49.447 34.692 24.291 16.637 69.736 11.971 69.736 11.971 73.386 37.533 73.386 37.533 69.736 32.461 69.736 37.533 55.533 47.879 73.386 57.82 55.533 62.891 69.736"></polygon>
 </g>
</svg>