<svg xmlns="http://www.w3.org/2000/svg" width="46" height="60" version="1.1" viewBox="0 0 291.44 501.24">
 <g transform="translate(-96.888 8.0118)" stroke="#fff" stroke-width="16.02" fill="#008080">
  <path d="m242.61 0c-100.48 0-181.96 81.473-181.96 181.96s151.63 303.26 181.96 303.26c30.326 0 181.96-202.78 181.96-303.26s-81.473-181.96-181.96-181.96z" stroke="#80ffff" stroke-width="16.02" fill="#008080"/>
 </g>
 <ellipse cx="146.02" cy="190.43" rx="122.57" ry="121.94" fill="#005959" stroke-width="1.8699"/>
 <path d="m110.44 111.36c-23.985 0-43.49 19.505-43.49 43.49v3.9538h15.815v-3.9538c0-15.551 12.124-27.676 27.676-27.676 12.691 0 23.04 8.0994 26.441 19.522-1.103-0.57413-2.2824-1.0356-3.4593-1.4825-0.83991-0.3288-1.5991-0.72803-2.4712-0.9884-0.32833-0.0951-0.6557-0.16228-0.98827-0.24722-2.4407-0.64235-5.0274-0.98842-7.6604-0.98842-10.543 0-20.12 5.2465-26.193 13.344l12.849 9.6374c3.416-4.5545 8.0718-7.166 13.344-7.166 9.4114 0 15.815 6.4035 15.815 15.815v7.9075h15.815v-7.9075c0-9.4112 6.4033-15.815 15.815-15.815 3.9537 0 7.6277 1.5449 10.626 4.2008 0.99912 0.88528 1.8642 1.8267 2.7182 2.9652l12.849-9.6374c-6.0728-8.0972-15.65-13.344-26.193-13.344-2.0083 0-4.0292 0.11026-5.9304 0.49422-0.60203 0.1122-1.14 0.34863-1.7298 0.4942-0.51889 0.13674-0.97401 0.33271-1.4825 0.49418-1.5305 0.45967-3.0242 1.0559-4.448 1.7298-0.32608 0.15749-0.66835 0.32767-0.9883 0.49422 3.3997-11.422 13.749-19.522 26.441-19.522 15.551 0 27.676 12.124 27.676 27.676v3.9538h15.815v-3.9538c0-23.985-19.505-43.49-43.49-43.49-14.73 0-27.506 7.5222-35.336 18.78-7.8587-11.321-21.032-18.78-35.83-18.78zm-11.861 79.074v15.815h9.8842c5.0451 11.416 19.7 23.722 37.56 23.722s32.515-12.306 37.56-23.722h9.8842v-15.815zm31.629 47.444v7.9072h-63.259l3.9537 12.603c2.3722 6.3262 7.9564 11.119 15.073 11.119h120.1c7.1166 0 12.701-4.7937 15.073-11.119l3.9536-12.603h-63.259v-7.9072h-31.629z" stroke-width="7.9074" fill="#80ffff"/>
</svg>