<svg xmlns="http://www.w3.org/2000/svg" width="46" height="60" version="1.1" viewBox="0 0 297.8 500.91">
 <g transform="translate(-93.71 7.8435)" stroke="#fff" stroke-width="15.687" fill="#a08844">
  <path d="m242.61 0c-100.48 0-181.96 81.473-181.96 181.96s151.63 303.26 181.96 303.26c30.326 0 181.96-202.78 181.96-303.26s-81.473-181.96-181.96-181.96z" stroke="#fff" stroke-width="15.687" fill="#a08844"/>
 </g>
 <ellipse cx="148.9" cy="190.26" rx="122.57" ry="121.94" fill="#847138" stroke-width="1.8699"/>
 <path d="m225.08 127.58c2.4356-8.1716 1.98-14.47-1.3728-18.898-3.9594-3.746-9.5948-4.2549-16.905-1.5358-7.31 2.7241-13.859 7.3203-19.647 13.789l-18.273 20.431-75.953-20.302c-1.2186-0.42635-2.3605-0.0862-3.426 1.0205l-14.621 16.345c-0.83652 0.93754-1.1804 2.0865-1.0274 3.4484 0.22855 1.3636 0.87595 2.3838 1.9418 3.0652l58.022 35.625-29.583 33.072-22.158-6.766c-0.15185-0.0842-0.45546-0.12863-0.91293-0.12863-1.0664 0-1.9415 0.38247-2.6271 1.1494l-10.964 12.385c-0.7613 1.0192-1.1034 2.0842-1.0273 3.1898 0.1512 1.3619 0.64605 2.3412 1.4845 2.9382l28.781 24.131 21.586 32.176c0.68562 0.93817 1.5997 1.4889 2.742 1.6619h0.22848c1.0663 0 1.9412-0.38229 2.6271-1.1475l10.963-12.256c0.98977-1.1936 1.2946-2.513 0.91454-3.9596l-6.0539-24.771 29.582-33.074 31.867 64.872c0.45621 1.107 1.2554 1.7875 2.3983 2.0432 0.22725 0.0861 0.49423 0.12703 0.7998 0.12703 0.91166 0 1.636-0.25581 2.1686-0.76557l14.623-12.258c1.2921-1.1912 1.7492-2.5944 1.3706-4.2121l-18.274-88.87 18.389-20.557c5.7853-6.4717 9.8964-13.794 12.333-21.966z" stroke-width=".42298" fill="#f7f4ec"/>
</svg>