<svg xmlns="http://www.w3.org/2000/svg" width="46" height="60" version="1.1" viewBox="0 0 291.44 501.24">
 <g transform="translate(-96.888 8.0118)" stroke="#fff" stroke-width="16.02" fill="#a08844">
  <path d="m242.61 0c-100.48 0-181.96 81.473-181.96 181.96s151.63 303.26 181.96 303.26c30.326 0 181.96-202.78 181.96-303.26s-81.473-181.96-181.96-181.96z" stroke="#fff" stroke-width="16.02" fill="#a08844"/>
 </g>
 <ellipse cx="146.02" cy="190.43" rx="122.57" ry="121.94" fill="#847138" stroke-width="1.8699"/>
 <g transform="matrix(.24004 0 0 .24004 50.985 95.4)" fill="#f7f4ec">
  <path d="m395.9 475.02-236.2-72.7v121.42c0 56.133 105.79 101.64 236.27 101.64s236.28-45.511 236.28-101.64c0-0.442-0.145-0.886-0.154-1.318v-120.1l-236.2 72.7z" fill="#f7f4ec"/>
  <path d="m0 318.73 84.383 30.185 7.191-15.401 31-2.635 4.42 4.599-26.601 6.308-3.877 11.475c-7e-3 0-60.087 125.6-51.263 187.05 0 0 37.502 22.37 74.988 0l9.962-168v-13.984l55.8-12.588-3.941 9.705-41.604 13.529 19.242 6.874 236.2 72.7 236.2-72.7 159.7-57.116-395.9-152.31-395.9 152.31z" fill="#f7f4ec"/>
 </g>
</svg>