<svg width="36" height="40" version="1.1" viewBox="0 0 12.226 13.394" xmlns="http://www.w3.org/2000/svg">
 <path d="m11.731 5.4963-1.251-0.70422 0.73128-1.2354c0.10786-0.17263 0.1108-0.35304 0.0091-0.54134-0.11005-0.18095-0.26726-0.2697-0.47176-0.26621l-1.4429 0.017019 0.02274-1.4381c0.00471-0.21163-0.085523-0.36721-0.2713-0.46623-0.17859-0.1113-0.35842-0.11188-0.53942-0.00179l-1.2339 0.73869-0.70677-1.258c-0.1005-0.18357-0.25514-0.27298-0.46426-0.26825-0.21063-8.316e-5 -0.36597 0.090404-0.46628 0.2712l-0.70225 1.2583-1.2373-0.73862c-0.17866-0.11123-0.35843-0.11181-0.53938-0.00174-0.18351 0.10049-0.27291 0.25528-0.26816 0.4645l0.017019 1.4429-1.4381-0.02274c-0.21175-0.00488-0.36715 0.085542-0.46623 0.27125-0.11126 0.17861-0.11188 0.3584-0.00174 0.53938l0.73869 1.2341-1.2581 0.70669c-0.17871 0.099203-0.27054 0.25465-0.27534 0.4664 0.005937 0.21397 0.098796 0.36871 0.27837 0.46432l1.2511 0.70419-0.73138 1.2354c-0.10772 0.17254-0.11068 0.353-0.00894 0.54121 0.11004 0.18102 0.26729 0.26972 0.47166 0.2663l1.4428-0.017116-0.022692 1.4381c-0.00491 0.21174 0.085495 0.36708 0.27119 0.46625 0.17865 0.1112 0.3584 0.1117 0.53936 0.0017l1.2341-0.73856c0.32871 0.60036 0.59139 2.7839 1.1731 2.9956 0.64843-0.18686 0.83951-2.4073 1.1685-2.9918l1.2354 0.73148c0.12396 0.07958 0.26014 0.09954 0.40851 0.05979 0.033665-9e-3 0.077784-0.02591 0.13285-0.05089 0.18089-0.11011 0.26953-0.26729 0.26609-0.47163l-0.01709-1.4427 1.438 0.022689c0.21178 0.00469 0.36724-0.085678 0.46625-0.2713 0.11126-0.17875 0.11186-0.3585 0.0018-0.5394l-0.73863-1.2341 1.258-0.70649c0.17891-0.099229 0.27056-0.25476 0.27544-0.46645-6e-3 -0.21394-0.0988-0.36873-0.27859-0.46426z" fill="#847138" stroke="#fff" stroke-linecap="round" stroke-linejoin="round" stroke-width=".43214"/>
 <g transform="matrix(.015897 0 0 .015897 2.4538 2.359)" fill="#f7f4ec">
  <path d="m230.15 120.94-164.16 135.34c0 0.191-0.048 0.472-0.144 0.855-0.094 0.38-0.144 0.656-0.144 0.852v137.04c0 4.948 1.809 9.236 5.426 12.847 3.616 3.613 7.898 5.431 12.847 5.431h109.63v-109.64h73.097v109.64h109.63c4.948 0 9.236-1.814 12.847-5.435 3.617-3.607 5.432-7.898 5.432-12.847v-137.04c0-0.76-0.104-1.334-0.288-1.707l-164.17-135.34z" fill="#f7f4ec"/>
  <path d="m457.12 225.44-62.522-51.962v-116.49c0-2.663-0.856-4.853-2.574-6.567-1.704-1.712-3.894-2.568-6.563-2.568h-54.816c-2.666 0-4.855 0.856-6.57 2.568-1.711 1.714-2.566 3.905-2.566 6.567v55.673l-69.662-58.245c-6.084-4.949-13.318-7.423-21.694-7.423-8.375 0-15.608 2.474-21.698 7.423l-205.28 171.02c-1.903 1.52-2.946 3.566-3.14 6.136-0.193 2.568 0.472 4.811 1.997 6.713l17.701 21.128c1.525 1.712 3.521 2.759 5.996 3.142 2.285 0.192 4.57-0.476 6.855-1.998l197.57-164.74 197.57 164.74c1.526 1.328 3.521 1.991 5.996 1.991h0.858c2.471-0.376 4.463-1.43 5.996-3.138l17.703-21.125c1.522-1.906 2.189-4.145 1.991-6.716-0.195-2.563-1.242-4.609-3.141-6.132z" fill="#f7f4ec"/>
 </g>
</svg>
