<svg xmlns="http://www.w3.org/2000/svg" width="46" height="60" version="1.1" viewBox="0 0 291.44 501.24">
 <g transform="translate(-96.888 8.0118)" stroke="#fff" stroke-width="16.02" fill="#a08844">
  <path d="m242.61 0c-100.48 0-181.96 81.473-181.96 181.96s151.63 303.26 181.96 303.26c30.326 0 181.96-202.78 181.96-303.26s-81.473-181.96-181.96-181.96z" stroke="#fff" stroke-width="16.02" fill="#a08844"/>
 </g>
 <ellipse cx="145.56" cy="190.43" rx="122.57" ry="121.94" fill="#847138" stroke-width="1.8699"/>
 <path d="m59.643 252.82c0-6.5024 0.25998-12.5 0.57783-13.328 0.68106-1.7748 4.2636-1.9958 5.8958-0.36361 0.62832 0.62823 1.1424 2.7705 1.1424 4.7597v3.6177h62.723l0.29273-3.9491c0.339-4.5752 2.5846-6.692 5.2908-4.9875 1.4249 0.8969 1.7042 2.8602 1.9318 13.561l0.26547 12.512h-7.6713v-11.424h-62.833v11.424h-7.6162zm89.068 9.7063c-1.1721-1.6734-1.482-4.9377-1.482-15.605v-13.488l3.5696-0.44046c1.9638-0.2415 4.5343-0.0848 5.7121 0.34829 2.0828 0.76664 2.1422 1.1594 2.1422 14.202 0 7.4269-0.43972 14.237-0.98533 15.257-1.4337 2.6787-7.0081 2.5081-8.9567-0.27495zm56.624 0.27417c-0.54212-1.0132-0.98592-5.9853-0.98592-11.05 0-8.0058 0.19665-9.1336 1.5059-8.631 0.82825 0.31843 2.5423 0.57824 3.8084 0.57824 2.295 0 2.3018 0.0346 2.3018 10.472v10.472h-2.8224c-1.816 0-3.1736-0.6566-3.8078-1.8413zm-133.62-21.627c-1.4598-1.46-0.63476-6.937 1.1922-7.9146 1.1306-0.60532 11.167-0.98517 25.999-0.98517 27.022 0 27.747 0.15287 27.213 5.7536l-0.31303 3.2903-26.721 0.25221c-14.697 0.13929-27.014-0.036-27.37-0.39633zm131.95-3.1051c-1.687-1.0594-3.6106-2.7966-4.2752-3.8607-0.93067-1.4898-2.2162-1.934-5.5987-1.934-5.2822 0-9.8726-2.79-12.391-7.5303-1.9933-3.7519-1.6432-4.8464 1.5518-4.8464 3.9223 0 12.331-3.6731 16.419-7.1721 9.2231-7.8938 11.989-22.027 6.4998-33.207l-2.765-5.6316 2.1566-1.7463c1.186-0.96055 2.9855-1.7464 3.998-1.7464 2.4712 0 6.5158 4.1727 6.5158 6.7224 0 1.6028 0.36309 1.8859 1.6655 1.2986 7.2778-3.2767 13.856 3.5711 11.104 11.558-0.72923 2.1155-0.90774 3.8766-0.41144 4.0472 5.7707 1.9832 12.395 11.647 12.395 18.085 0 8.3921-4.6254 15.736-12.137 19.271-2.488 1.1704-5.9108 3.4304-7.6066 5.0223-4.1 3.8462-12.37 4.6533-17.12 1.6705zm-131.96-8.3334c-1.448-1.4482-0.61107-6.9272 1.2068-7.9 2.4821-1.3283 49.052-1.3283 51.534 0 1.8265 0.97756 2.3877 4.0996 1.2635 7.0282-0.50744 1.3235-3.7823 1.5061-26.974 1.5061-14.518 0-26.681-0.28577-27.03-0.6343zm74.602-2.3286c-3.823-1.5261-8.5112-5.5092-10.887-9.2512-1.6477-2.5942-3.4628-3.9275-7.049-5.179-6.9432-2.4234-14.461-9.6304-17.814-17.077-5.607-12.456-2.6895-27.149 7.2345-36.43 2.523-2.3605 6.0884-5.0073 7.9234-5.8819l3.3362-1.5908-1.9826-2.7853c-3.9151-5.4982-2.0989-14.388 3.6672-17.953 3.3774-2.0873 10.236-2.7665 14.353-1.4213 2.0141 0.65843 2.1419 0.43647 2.1419-3.7214 0-3.6174 0.50577-4.9271 2.7826-7.2039 3.0279-3.028 6.2517-3.5169 11.385-1.7277 3.6563 1.2743 5.8254 5.1042 5.8254 10.285 0 3.6677 0.15446 3.8605 3.9203 4.8746 7.4467 2.0052 15.093 11.887 15.114 19.533 0.0109 1.3639 1.0107 2.314 3.3465 3.159 5.5717 2.0143 7.8781 9.0244 4.6111 14.011-1.5364 2.3442-1.4878 2.4736 2.3445 6.267 10.581 10.478 8.6162 27.678-4.0575 35.515-3.9362 2.434-5.6779 2.8964-11.226 2.9805-6.2387 0.0946-6.6379 0.23667-7.9901 2.8563-3.7706 7.3029-11.281 11.836-19.453 11.74-2.8459-0.0345-6.2319-0.48263-7.5253-0.99859zm-59.426-48.465c-2.181-5.4518-2.0249-7.8034 0.49295-7.4255 2.1534 0.32351 5.7756 7.7622 4.896 10.054-0.99091 2.5821-3.8649 1.1798-5.389-2.6286zm-24.998-0.48235c-0.75407-1.965 4.2537-9.0192 6.4029-9.0192 2.9925 0 2.9733 1.7607-0.06812 6.1804-3.0186 4.3881-5.3414 5.4285-6.3351 2.8388zm15.51-10.94c-7.3851-2.2395-11.158-10.533-7.7708-17.082 6.1499-11.893 23.326-8.2068 23.34 5.0087 0.01004 8.5992-7.5918 14.493-15.569 12.073zm22.307-7.4599c-2.6194-0.75717-3.2652-1.9351-2.0838-3.8015 0.62634-0.98961 1.9824-1.096 5.9346-0.46693 4.2069 0.66917 5.1227 1.1539 5.1227 2.7104 0 1.4995-0.69529 1.9291-3.332 2.0604-1.8327 0.0902-4.3714-0.1357-5.6414-0.50232zm-45.292-5.7322c-2.9756-0.46447-3.8083-1.0117-3.8083-2.4987 0-1.4939 0.72912-1.9653 3.3857-2.1886 4.6412-0.3904 8.738 1.2712 8.3359 3.3811-0.35456 1.8605-2.3072 2.1824-7.9134 1.3062zm34.749-15.062c0-2.5404 4.8882-8.9726 6.5721-8.6484 2.4668 0.47525 2.2877 3.3433-0.43147 6.9085-2.6979 3.5374-6.1406 4.5127-6.1406 1.7399zm-20.338-4.3672c-2.1609-5.6579-2.0384-7.5509 0.46433-7.1743 1.4157 0.21265 2.5608 1.6812 3.8201 4.8976 1.9307 4.9311 1.7047 6.3543-1.0086 6.3543-1.1468 0-2.2366-1.3563-3.2758-4.0774z" stroke-width=".95201" fill="#f7f4ec"/>
</svg>