<svg width="36" height="40" version="1.1" viewBox="0 0 12.226 13.394" xmlns="http://www.w3.org/2000/svg">
 <path d="m11.731 5.4963-1.251-0.70422 0.73128-1.2354c0.10786-0.17263 0.1108-0.35304 0.0091-0.54134-0.11005-0.18095-0.26726-0.2697-0.47176-0.26621l-1.4429 0.017019 0.02274-1.4381c0.00471-0.21163-0.085523-0.36721-0.2713-0.46623-0.17859-0.1113-0.35842-0.11188-0.53942-0.00179l-1.2339 0.73869-0.70677-1.258c-0.1005-0.18357-0.25514-0.27298-0.46426-0.26825-0.21063-8.316e-5 -0.36597 0.090404-0.46628 0.2712l-0.70225 1.2583-1.2373-0.73862c-0.17866-0.11123-0.35843-0.11181-0.53938-0.00174-0.18351 0.10049-0.27291 0.25528-0.26816 0.4645l0.017019 1.4429-1.4381-0.02274c-0.21175-0.00488-0.36715 0.085542-0.46623 0.27125-0.11126 0.17861-0.11188 0.3584-0.00174 0.53938l0.73869 1.2341-1.2581 0.70669c-0.17871 0.099203-0.27054 0.25465-0.27534 0.4664 0.005937 0.21397 0.098796 0.36871 0.27837 0.46432l1.2511 0.70419-0.73138 1.2354c-0.10772 0.17254-0.11068 0.353-0.00894 0.54121 0.11004 0.18102 0.26729 0.26972 0.47166 0.2663l1.4428-0.017116-0.022692 1.4381c-0.00491 0.21174 0.085495 0.36708 0.27119 0.46625 0.17865 0.1112 0.3584 0.1117 0.53936 0.0017l1.2341-0.73856c0.32871 0.60036 0.59139 2.7839 1.1731 2.9956 0.64843-0.18686 0.83951-2.4073 1.1685-2.9918l1.2354 0.73148c0.12396 0.07958 0.26014 0.09954 0.40851 0.05979 0.033665-9e-3 0.077784-0.02591 0.13285-0.05089 0.18089-0.11011 0.26953-0.26729 0.26609-0.47163l-0.01709-1.4427 1.438 0.022689c0.21178 0.00469 0.36724-0.085678 0.46625-0.2713 0.11126-0.17875 0.11186-0.3585 0.0018-0.5394l-0.73863-1.2341 1.258-0.70649c0.17891-0.099229 0.27056-0.25476 0.27544-0.46645-6e-3 -0.21394-0.0988-0.36873-0.27859-0.46426z" fill="#005959" stroke="#80ffff" stroke-linecap="round" stroke-linejoin="round" stroke-width=".43214"/>
 <g transform="matrix(.012666 0 0 .012666 3.0695 2.7751)" fill="#80ffff">
  <path d="m385.63 200.11 94.863-33.512-58.852-166.59-95.191 33.629z" fill="#80ffff"/>
  <path d="m81.145 156.98-81.145 28.664 35.801 101.35 81.348-28.734z" fill="#80ffff"/>
  <path d="m303.39 250.28c0-12.355-4.707-23.633-12.414-32.141l61.418-21.695-49.449-139.12-200.16 70.711 49.453 139.11 55.434-19.582c-0.0508 0.89844-0.0781 1.8008-0.0781 2.7109 0 9.1523 2.582 17.707 7.0508 24.988l-87.273 236.73h32.062l18.98-51.484h62.035v51.484h30.086v-51.484h62.273l18.977 51.484h32.066l-87.363-236.97c4.3789-7.2266 6.9062-15.699 6.9062-24.746zm-62.945 180.15h-50.941l49.797-135.07c0.37891 0.13672 0.76172 0.26172 1.1445 0.38672zm81.266 0h-51.18v-134.68c0.45312-0.14844 0.91016-0.29688 1.3594-0.46094z" fill="#80ffff"/>
 </g>
</svg>
