<svg xmlns="http://www.w3.org/2000/svg" width="46" height="60" version="1.1" viewBox="0 0 291.44 501.24">
 <g transform="translate(-96.888 8.0118)" stroke="#fff" stroke-width="16.02" fill="#008080">
  <path d="m242.61 0c-100.48 0-181.96 81.473-181.96 181.96s151.63 303.26 181.96 303.26c30.326 0 181.96-202.78 181.96-303.26s-81.473-181.96-181.96-181.96z" stroke="#80ffff" stroke-width="16.02" fill="#008080"/>
 </g>
 <ellipse cx="145.56" cy="190.43" rx="122.57" ry="121.94" fill="#005959" stroke-width="1.8699"/>
 <g transform="matrix(.34553 0 0 .34553 60.559 105.43)" fill="#80ffff">
  <path d="m492 420.5c-10.667 0-20.667-2.333-30-7-10.668-4.667-21.334-7-32-7-10.667 0-21 2.333-31 7-9.333 4.667-19.333 7-30 7s-20.667-2.333-30-7c-10.668-4.667-21.335-7-32-7-10.667 0-21 2.333-31 7-9.333 4.667-19.333 7-30 7s-20.667-2.333-30-7c-10-4.667-20.333-7-31-7s-21.333 2.333-32 7c-9.333 4.667-19.333 7-30 7s-20.667-2.333-30-7c-10-4.667-20.333-7-31-7s-21 2.333-31 7-20.333 7-31 7v-45c10.667 0 21-2.333 31-7s20.333-7 31-7 21 2.333 31 7 20.167 7 30.5 7 20.167-2.333 29.5-7c10-4.667 20.5-7 31.5-7s21.5 2.333 31.5 7 20.167 7 30.5 7c10.334 0 20.167-2.333 29.5-7 10-4.667 20.667-7 32-7 10 0 20.333 2.333 31 7 9.335 4.667 19.168 7 29.5 7 10.333 0 20.5-2.333 30.5-7s20.5-7 31.5-7 21.5 2.333 31.5 7c9.333 4.667 19.333 7 30 7z" fill="#80ffff"/>
  <path d="m421 292.5c16 0 29.667-5.667 41-17s17-25 17-41-5.667-29.667-17-41-25.167-17-41.5-17-30.167 5.667-41.5 17-17 25-17 41c0 16.667 5.5 30.5 16.5 41.5s25.167 16.5 42.5 16.5z" fill="#80ffff"/>
  <path d="m80 325.5c4 0.667 8.333 2 13 4 10 4.667 20.167 7 30.5 7s20.167-2.333 29.5-7c10.667-4.667 21.167-7 31.5-7s20.833 2.333 31.5 7c10 4.667 20.167 7 30.5 7 10.334 0 20.167-2.333 29.5-7 10.667-4.667 21.167-7 31.5-7s20.833 2.333 31.5 7c9.333 4.667 19.333 7 30 7 7.336 0 14.67-1.333 22-4l-97-174 113-21c8.667-1.333 15.667-5 21-11s8-13.333 8-22-3.333-16.333-10-23c-6.668-6.667-14.335-10-23-10-2 0-3.333 0.333-4 1l-175 31c-7.333 2-13.5 7.167-18.5 15.5s-5.5 17.5-1.5 27.5l2 3 46 82z" fill="#80ffff"/>
 </g>
</svg>