<svg width="36" height="40" version="1.1" viewBox="0 0 12.226 13.394" xmlns="http://www.w3.org/2000/svg">
 <path d="m11.731 5.4963-1.251-0.70422 0.73128-1.2354c0.10786-0.17263 0.1108-0.35304 0.0091-0.54134-0.11005-0.18095-0.26726-0.2697-0.47176-0.26621l-1.4429 0.017019 0.02274-1.4381c0.00471-0.21163-0.085523-0.36721-0.2713-0.46623-0.17859-0.1113-0.35842-0.11188-0.53942-0.00179l-1.2339 0.73869-0.70677-1.258c-0.1005-0.18357-0.25514-0.27298-0.46426-0.26825-0.21063-8.316e-5 -0.36597 0.090404-0.46628 0.2712l-0.70225 1.2583-1.2373-0.73862c-0.17866-0.11123-0.35843-0.11181-0.53938-0.00174-0.18351 0.10049-0.27291 0.25528-0.26816 0.4645l0.017019 1.4429-1.4381-0.02274c-0.21175-0.00488-0.36715 0.085542-0.46623 0.27125-0.11126 0.17861-0.11188 0.3584-0.00174 0.53938l0.73869 1.2341-1.2581 0.70669c-0.17871 0.099203-0.27054 0.25465-0.27534 0.4664 0.005937 0.21397 0.098796 0.36871 0.27837 0.46432l1.2511 0.70419-0.73138 1.2354c-0.10772 0.17254-0.11068 0.353-0.00894 0.54121 0.11004 0.18102 0.26729 0.26972 0.47166 0.2663l1.4428-0.017116-0.022692 1.4381c-0.00491 0.21174 0.085495 0.36708 0.27119 0.46625 0.17865 0.1112 0.3584 0.1117 0.53936 0.0017l1.2341-0.73856c0.32871 0.60036 0.59139 2.7839 1.1731 2.9956 0.64843-0.18686 0.83951-2.4073 1.1685-2.9918l1.2354 0.73148c0.12396 0.07958 0.26014 0.09954 0.40851 0.05979 0.033665-9e-3 0.077784-0.02591 0.13285-0.05089 0.18089-0.11011 0.26953-0.26729 0.26609-0.47163l-0.01709-1.4427 1.438 0.022689c0.21178 0.00469 0.36724-0.085678 0.46625-0.2713 0.11126-0.17875 0.11186-0.3585 0.0018-0.5394l-0.73863-1.2341 1.258-0.70649c0.17891-0.099229 0.27056-0.25476 0.27544-0.46645-6e-3 -0.21394-0.0988-0.36873-0.27859-0.46426z" fill="#005959" stroke="#80ffff" stroke-linecap="round" stroke-linejoin="round" stroke-width=".43214"/>
 <g transform="matrix(.01351 0 0 .01351 2.6568 2.1541)" fill="#80ffff">
  <path d="m18.842 128.48c-12.562 12.563-18.842 27.6-18.842 45.108v237.54c0 17.512 6.28 32.549 18.842 45.111 12.563 12.562 27.6 18.843 45.111 18.843h9.136v-365.45h-9.136c-17.515 0-32.551 6.284-45.111 18.846z" fill="#80ffff"/>
  <path d="m365.45 63.953c0-7.614-2.663-14.084-7.994-19.414-5.325-5.33-11.8-7.993-19.411-7.993h-164.45c-7.612 0-14.083 2.663-19.414 7.993-5.33 5.327-7.994 11.799-7.994 19.414v45.679h-45.681v365.45h310.62v-365.45h-45.679v-45.679zm-182.72 9.136h146.18v36.543h-146.18zm182.72 246.68c0 2.67-0.855 4.853-2.567 6.571-1.711 1.707-3.9 2.566-6.563 2.566h-63.953v63.953c0 2.662-0.862 4.853-2.573 6.563-1.704 1.711-3.895 2.567-6.561 2.567h-54.819c-2.667 0-4.854-0.856-6.567-2.567-1.711-1.711-2.568-3.901-2.568-6.563v-63.953h-63.953c-2.668 0-4.854-0.859-6.567-2.566-1.714-1.719-2.57-3.901-2.57-6.571v-54.815c0-2.67 0.856-4.859 2.57-6.571 1.709-1.709 3.899-2.564 6.562-2.564h63.953v-63.955c0-2.666 0.856-4.853 2.57-6.567 1.713-1.713 3.899-2.568 6.567-2.568h54.818c2.665 0 4.855 0.855 6.563 2.568 1.711 1.714 2.573 3.901 2.573 6.567v63.954h63.953c2.663 0 4.853 0.855 6.563 2.564 1.708 1.712 2.563 3.901 2.563 6.571v54.815h6e-3z" fill="#80ffff"/>
  <path d="m492.78 128.48c-12.563-12.562-27.601-18.846-45.111-18.846h-9.137v365.45h9.137c17.511 0 32.548-6.28 45.111-18.843 12.559-12.562 18.842-27.6 18.842-45.111v-237.54c-1e-3 -17.508-6.284-32.545-18.842-45.108z" fill="#80ffff"/>
 </g>
</svg>
