<svg xmlns="http://www.w3.org/2000/svg" width="46" height="60" version="1.1" viewBox="0 0 291.44 501.24">
 <g transform="translate(-96.888 8.0118)" stroke="#fff" stroke-width="16.02" fill="#a08844">
  <path d="m242.61 0c-100.48 0-181.96 81.473-181.96 181.96s151.63 303.26 181.96 303.26c30.326 0 181.96-202.78 181.96-303.26s-81.473-181.96-181.96-181.96z" stroke="#fff" stroke-width="16.02" fill="#a08844"/>
 </g>
 <ellipse cx="145.56" cy="190.43" rx="122.57" ry="121.94" fill="#847138" stroke-width="1.8699"/>
 <path d="m194.21 99.004h-97.296l-13.852 13.852v169h125v-169zm-20.077 68.572c2.9592 0 5.3572 2.3982 5.3572 5.3569 0 2.959-2.398 5.3575-5.3572 5.3575-2.9591 0-5.357-2.3985-5.357-5.3575 0-2.9587 2.3978-5.3569 5.357-5.3569zm-28.571-47.143c12.998 0 23.571 10.573 23.571 23.571 0 12.999-10.573 23.572-23.571 23.572s-23.571-10.573-23.571-23.572c0-12.998 10.573-23.571 23.571-23.571zm-23.214 52.5c0 2.959-2.3979 5.3575-5.3569 5.3575-2.9592 0-5.3572-2.3985-5.3572-5.3575 0-2.9587 2.398-5.3569 5.3572-5.3569 2.959 0 5.3569 2.3982 5.3569 5.3569zm-12.5-52.5c2.959 0 5.3574 2.3982 5.3574 5.3575 0 2.959-2.3984 5.3569-5.3574 5.3569-2.9588 0-5.357-2.398-5.357-5.3569 0-2.9592 2.3982-5.3575 5.357-5.3575zm35.714 140c-22.646 0-41.071-18.425-41.071-41.071s18.425-41.071 41.071-41.071 41.071 18.425 41.071 41.071-18.425 41.071-41.071 41.071zm35.714-129.29c-2.959 0-5.3575-2.398-5.3575-5.3569 0-2.9592 2.3985-5.3575 5.3575-5.3575 2.9587 0 5.3569 2.3982 5.3569 5.3575 0 2.959-2.3982 5.3569-5.3569 5.3569z" stroke-width=".35714" fill="#f7f4ec"/>
 <path d="m145.3 157.89c7.6927 0 13.95-6.2573 13.95-13.95s-6.2573-13.95-13.95-13.95-13.95 6.2573-13.95 13.95 6.2573 13.95 13.95 13.95z" stroke-width=".3875" fill="#f7f4ec"/>
 <path d="m145.12 214.03c-2.9722 0-5.3912 2.419-5.3912 5.3912s2.419 5.3912 5.3912 5.3912 5.3912-2.419 5.3912-5.3912-2.419-5.3912-5.3912-5.3912z" stroke-width=".35941" fill="#f7f4ec"/>
 <path d="m145.12 188.87c-16.845 0-30.55 13.705-30.55 30.55s13.705 30.55 30.55 30.55 30.55-13.705 30.55-30.55-13.705-30.55-30.55-30.55zm0 46.724c-8.9176 0-16.174-7.2561-16.174-16.174 0-8.9176 7.2561-16.174 16.174-16.174 8.9175 0 16.174 7.2561 16.174 16.174 0 8.9175-7.2561 16.174-16.174 16.174z" stroke-width=".35941" fill="#f7f4ec"/>
</svg>